<svg display="none" xmlns="http://www.w3.org/2000/svg">
    <symbol id="facebook" viewBox="0 0 20 20">
        <path d="M18.3346 9.99935C18.3346 5.39935 14.6013 1.66602 10.0013 1.66602C5.4013 1.66602 1.66797 5.39935 1.66797 9.99935C1.66797 14.0327 4.53464 17.391 8.33464 18.166V12.4993H6.66797V9.99935H8.33464V7.91602C8.33464 6.30768 9.64297 4.99935 11.2513 4.99935H13.3346V7.49935H11.668C11.2096 7.49935 10.8346 7.87435 10.8346 8.33268V9.99935H13.3346V12.4993H10.8346V18.291C15.043 17.8743 18.3346 14.3243 18.3346 9.99935Z"/>
    </symbol>

    <symbol id="telegram" viewBox="0 0 20 20">
        <path d="M10.0013 1.66602C5.4013 1.66602 1.66797 5.39935 1.66797 9.99935C1.66797 14.5993 5.4013 18.3327 10.0013 18.3327C14.6013 18.3327 18.3346 14.5993 18.3346 9.99935C18.3346 5.39935 14.6013 1.66602 10.0013 1.66602ZM13.868 7.33268C13.743 8.64935 13.2013 11.8493 12.9263 13.3243C12.8096 13.9493 12.5763 14.1577 12.3596 14.1827C11.8763 14.2243 11.5096 13.866 11.043 13.5577C10.3096 13.0744 9.89297 12.7744 9.18464 12.3077C8.35964 11.766 8.89297 11.466 9.36797 10.9827C9.49297 10.8577 11.6263 8.91602 11.668 8.74102C11.6738 8.71451 11.673 8.68699 11.6657 8.66085C11.6585 8.63471 11.6449 8.61074 11.6263 8.59102C11.5763 8.54935 11.5096 8.56602 11.4513 8.57435C11.3763 8.59102 10.2096 9.36602 7.93464 10.8993C7.6013 11.1243 7.3013 11.241 7.03464 11.2327C6.73463 11.2243 6.16797 11.066 5.74297 10.9243C5.21797 10.7577 4.80964 10.666 4.84297 10.3743C4.85964 10.2243 5.06797 10.0743 5.45964 9.91602C7.89297 8.85768 9.50964 8.15768 10.318 7.82435C12.6346 6.85768 13.1096 6.69102 13.4263 6.69102C13.493 6.69102 13.6513 6.70768 13.7513 6.79102C13.8346 6.85768 13.8596 6.94935 13.868 7.01602C13.8596 7.06602 13.8763 7.21602 13.868 7.33268Z"/>
    </symbol>
                                        
</svg>
