<svg aria-hidden="true" style="position:absolute;width:0;height:0" xmlns="http://www.w3.org/2000/svg" overflow="hidden"><defs><symbol id="arrow-right" viewBox="0 0 32 32"><path d="M5.333 15a1 1 0 000 2v-2zm22.041 1.707a.999.999 0 000-1.414L21.01 8.929a.999.999 0 10-1.414 1.414L25.253 16l-5.657 5.657a.999.999 0 101.414 1.414l6.364-6.364zM5.333 17h21.333v-2H5.333v2z"/></symbol><symbol id="arrow-left" viewBox="0 0 32 32"><path d="M26.667 17a1 1 0 000-2v2zM4.626 15.293a.999.999 0 000 1.414l6.364 6.364a.999.999 0 101.414-1.414L6.747 16l5.657-5.657a1 1 0 00-1.414-1.414l-6.364 6.364zM26.667 15H5.334v2h21.333v-2z"/></symbol><symbol id="icon-prime_copy" viewBox="0 0 32 32"><path d="M26.04 10.667l-7.373-7.373a.997.997 0 00-.707-.293h-3.293A3.667 3.667 0 0011 6.668v1.667H9.333a3.667 3.667 0 00-3.667 3.667v13.333a3.667 3.667 0 003.667 3.667h9.333a3.667 3.667 0 003.667-3.667v-1.667h.333a3.667 3.667 0 003.667-3.667v-8.667a1.005 1.005 0 00-.293-.667zM19 6.413l3.92 3.92H19v-3.92zm1.333 18.92A1.665 1.665 0 0118.666 27H9.333a1.667 1.667 0 01-1.666-1.667V12a1.667 1.667 0 011.666-1.666H11v9.667a3.667 3.667 0 003.667 3.667h5.667v1.667zm2.334-3.666h-8A1.665 1.665 0 0113 20V6.667a1.667 1.667 0 011.667-1.666H17v6.333c.003.264.11.517.297.703s.439.293.703.297h6.333v7.667a1.665 1.665 0 01-1.667 1.667z"/></symbol><symbol id="cross-icon" viewBox="0 0 32 32"><path d="M16 17.866l-6.533 6.533c-.244.244-.556.367-.933.367s-.689-.122-.933-.367c-.244-.244-.367-.556-.367-.933s.122-.689.367-.933L14.134 16 7.601 9.467c-.244-.244-.367-.556-.367-.933s.122-.689.367-.933c.244-.244.556-.367.933-.367s.689.122.933.367L16 14.134l6.533-6.533c.244-.244.556-.367.933-.367s.689.122.933.367c.244.244.367.556.367.933s-.122.689-.367.933L17.866 16l6.533 6.533c.244.244.367.556.367.933s-.122.689-.367.933c-.244.244-.556.367-.933.367s-.689-.122-.933-.367L16 17.866z"/></symbol><symbol id="minus-icon" viewBox="0 0 32 32"><path d="M24 17.331H8a1.333 1.333 0 110-2.666h16a1.333 1.333 0 110 2.666z"/></symbol><symbol id="plus-icon" viewBox="0 0 32 32"><path d="M24 17.331h-6.667v6.667a1.33 1.33 0 01-1.334 1.333 1.333 1.333 0 01-1.333-1.333v-6.667H7.999a1.333 1.333 0 110-2.666h6.667V7.998a1.333 1.333 0 112.667 0v6.667H24a1.333 1.333 0 110 2.666z"/></symbol><symbol id="facebook" viewBox="0 0 20 20"><path d="M18.335 10c0-4.6-3.734-8.334-8.334-8.334a8.336 8.336 0 00-8.333 8.333c0 4.034 2.867 7.392 6.667 8.167v-5.667H6.668V10h1.667V7.916a2.92 2.92 0 012.916-2.917h2.084v2.5h-1.667a.836.836 0 00-.833.834v1.666h2.5v2.5h-2.5v5.792a8.332 8.332 0 007.5-8.292z"/></symbol><symbol id="telegram" viewBox="0 0 20 20"><path d="M10.001 1.666a8.336 8.336 0 00-8.333 8.333c0 4.6 3.733 8.334 8.333 8.334s8.334-3.734 8.334-8.334S14.6 1.666 10 1.666zm3.867 5.667c-.125 1.316-.667 4.516-.942 5.991-.116.625-.35.834-.566.859-.484.041-.85-.317-1.317-.625-.733-.484-1.15-.784-1.858-1.25-.825-.542-.292-.842.183-1.325.125-.125 2.258-2.067 2.3-2.242a.166.166 0 00-.042-.15c-.05-.042-.116-.025-.175-.017-.075.017-1.241.792-3.516 2.325-.334.225-.634.342-.9.334-.3-.009-.867-.167-1.292-.309-.525-.166-.933-.258-.9-.55.017-.15.225-.3.617-.458a374.151 374.151 0 014.858-2.092c2.317-.966 2.792-1.133 3.108-1.133.067 0 .225.017.325.1a.331.331 0 01.117.225c-.008.05.008.2 0 .317z"/></symbol><symbol id="instagram" viewBox="0 0 20 20"><path d="M10.854 1.666c.938.003 1.414.008 1.825.02l.161.005.594.025c.886.042 1.491.182 2.022.388.55.211 1.014.498 1.477.96.424.417.752.92.96 1.477.206.53.346 1.136.388 2.023l.025.594.005.161c.013.41.018.886.02 1.824v1.713c.002.608-.004 1.216-.019 1.823l-.005.162-.025.593c-.042.888-.183 1.492-.388 2.024a4.07 4.07 0 01-.961 1.476c-.417.424-.92.752-1.477.961-.53.206-1.136.346-2.022.388l-.594.025-.161.005a73.06 73.06 0 01-1.825.019H9.143a65.253 65.253 0 01-1.824-.018l-.162-.006a53.386 53.386 0 01-.593-.025c-.887-.042-1.492-.182-2.023-.388a4.075 4.075 0 01-1.476-.96 4.087 4.087 0 01-.962-1.477c-.206-.531-.346-1.136-.387-2.024a62.11 62.11 0 01-.025-.593l-.005-.162a65.846 65.846 0 01-.02-1.823V9.143c-.003-.608.003-1.216.018-1.824l.006-.161c.006-.188.015-.372.025-.594.041-.887.181-1.491.387-2.023.21-.557.538-1.06.964-1.477a4.08 4.08 0 011.475-.96c.531-.206 1.135-.346 2.023-.388l.593-.025.162-.005a65.813 65.813 0 011.823-.02h1.713zm-.856 4.167a4.167 4.167 0 100 8.333 4.167 4.167 0 000-8.333zm0 1.666a2.5 2.5 0 110 5 2.5 2.5 0 010-5m4.376-2.916a1.042 1.042 0 100 2.083 1.042 1.042 0 000-2.083z"/></symbol><symbol id="twitter" viewBox="0 0 18 18"><path d="M8.202.7A8.37 8.37 0 001.93 4.594c-1.966 3.128-1.595 7.282.892 9.986 1.384 1.504 3.096 2.4 5.153 2.693.388.055 1.667.052 2.067-.004 2.025-.28 3.737-1.171 5.117-2.669 1.137-1.23 1.862-2.806 2.116-4.577.056-.384.056-1.666 0-2.05-.192-1.355-.621-2.504-1.334-3.578a7.669 7.669 0 00-1.026-1.253c-1.298-1.315-2.906-2.126-4.759-2.4C9.755.685 8.6.659 8.202.7zm.088 5.183a97.72 97.72 0 001.244 1.79c.01.003.71-.8 1.559-1.784l1.54-1.79.416-.01c.244-.003.41.003.404.023-.003.016-.4.482-.876 1.032l-1.764 2.054-.902 1.045 1.729 2.52c.95 1.383 1.822 2.652 1.94 2.815l.208.303H10.93l-1.296-1.888c-.712-1.039-1.305-1.888-1.315-1.885-.01 0-.745.846-1.63 1.878l-1.615 1.878-.43.01-.43.01 1.869-2.175 1.868-2.17-.104-.15C7.73 9.228 4.361 4.32 4.263 4.17l-.055-.088 1.426.007 1.429.01L8.29 5.883z" fill="#1D2087"/><path d="M8.348 9.004l2.988 4.274.638.01c.351.003.641-.003.641-.016 0-.016-1.338-1.937-2.972-4.274L6.671 4.75l-.657-.01-.655-.006 2.989 4.27z" fill="#1D2087"/></symbol><symbol id="linkedin" viewBox="0 0 18 18"><path fill-rule="evenodd" clip-rule="evenodd" d="M2.75.25a2.5 2.5 0 00-2.5 2.5v12.5a2.5 2.5 0 002.5 2.5h12.5a2.5 2.5 0 002.5-2.5V2.75a2.5 2.5 0 00-2.5-2.5H2.75zm1.378 5.371a1.494 1.494 0 100-2.987 1.494 1.494 0 000 2.987zm1.25 9.395V6.793h-2.5v8.223h2.5zm1.66-8.223h2.5v1.1c.368-.577 1.178-1.354 2.684-1.354 1.798 0 2.774 1.191 2.774 3.457 0 .109.01.605.01.605v4.414h-2.5v-4.413c0-.606-.127-1.797-1.475-1.797-1.349 0-1.462 1.498-1.494 2.478v3.732h-2.5V6.792z" fill="#1D2087"/></symbol><symbol id="phone" viewBox="0 0 20 20"><path d="M5.517 8.992a12.624 12.624 0 005.491 5.491l1.834-1.833a.829.829 0 01.85-.2 9.506 9.506 0 002.975.475c.458 0 .833.375.833.833v2.909a.836.836 0 01-.833.833C8.842 17.5 2.5 11.158 2.5 3.333c0-.458.375-.833.833-.833H6.25c.458 0 .833.375.833.833 0 1.042.167 2.042.475 2.975a.836.836 0 01-.208.85L5.517 8.992z"/></symbol><symbol id="mail" viewBox="0 0 20 20"><path d="M16.668 3.334H3.335c-.917 0-1.659.75-1.659 1.667l-.008 10c0 .916.75 1.666 1.667 1.666h13.333c.917 0 1.667-.75 1.667-1.666V5c0-.917-.75-1.667-1.667-1.667zm0 3.333l-6.667 4.167-6.666-4.167V5.001L10 9.167l6.667-4.166v1.666z"/></symbol><symbol id="close" viewBox="0 0 32 32"><path d="M15.999 17.866l-6.533 6.533c-.244.244-.556.367-.933.367s-.689-.122-.933-.367c-.244-.244-.367-.556-.367-.933s.122-.689.367-.933L14.133 16 7.6 9.467c-.244-.244-.367-.556-.367-.933s.122-.689.367-.933c.244-.244.556-.367.933-.367s.689.122.933.367l6.533 6.533 6.533-6.533c.244-.244.556-.367.933-.367s.689.122.933.367c.244.244.367.556.367.933s-.122.689-.367.933L17.865 16l6.533 6.533c.244.244.367.556.367.933s-.122.689-.367.933c-.244.244-.556.367-.933.367s-.689-.122-.933-.367l-6.533-6.533z"/></symbol><symbol id="icon-arrow-down" viewBox="0 0 51 32"><path fill="none" stroke-linejoin="round" stroke-linecap="round" d="M2.326 2.665l23.273 26.667L48.872 2.665"/></symbol><symbol id="btn-to-top" viewBox="0 0 22 30"><path d="M11 1L1 9.69M11 1l10 8.69M11 1v28" stroke="currentColor" stroke-width="2" stroke-linecap="round" stroke-linejoin="round"/></symbol><symbol id="icon_people" viewBox="0 0 32 32"><path d="M25.126 11.299zm-8.25 0zm-4.848 14.464zm17.944 0zM12.498 12.421zm-6.625 0zm6.586 8.413a1 1 0 00.833-1.819l-.833 1.818zM2.022 23.971l-.97-.242v.001l.971.24zm7.604 1.828a1 1 0 000-2v2zm14.502-14.571C23.973 13.382 22.407 14.8 21 14.8v2c2.706 0 4.911-2.499 5.122-5.428l-1.995-.144zm-3.127 3.571c-1.407 0-2.975-1.418-3.127-3.571l-1.995.141c.208 2.932 2.417 5.429 5.123 5.429v-2zm-3.128-3.57c-.076-1.067.256-1.912.795-2.487C19.21 8.164 20.017 7.8 21 7.8v-2c-1.493 0-2.843.563-3.791 1.574-.951 1.014-1.443 2.419-1.331 3.996l1.995-.141zm3.128-3.43c1.897 0 3.273 1.411 3.128 3.428l1.995.144c.229-3.176-2.065-5.572-5.122-5.572v2zm-.001 11c-4.336 0-8.808 2.17-9.942 6.721l1.941.483c.829-3.329 4.191-5.205 8.001-5.205v-2zm-9.942 6.722c-.253 1.014.381 2.279 1.703 2.279v-2c.03 0 .074.008.119.033a.254.254 0 01.091.081c.035.052.029.088.028.092l-1.941-.484zm1.703 2.278h16.478v-2H12.761v2zm16.478 0c1.325 0 1.951-1.268 1.704-2.276L29.001 26c-.001-.002-.008-.037.027-.088a.25.25 0 01.092-.081.253.253 0 01.119-.033v2zm1.704-2.274C29.81 20.901 25.327 18.8 21 18.8v2c3.82 0 7.172 1.819 8.001 5.201l1.943-.476zM11.5 12.349c-.119 1.648-1.328 2.701-2.315 2.701v2c2.298 0 4.136-2.145 4.31-4.557l-1.995-.144zm-2.315 2.7c-.988 0-2.198-1.053-2.315-2.699l-1.995.141c.171 2.415 2.013 4.558 4.31 4.558v-2zM6.87 12.35c-.108-1.53.913-2.551 2.315-2.551v-2c-2.556 0-4.501 1.998-4.31 4.692l1.995-.141zm2.315-2.551c1.395 0 2.423 1.052 2.315 2.549l1.995.144c.191-2.649-1.748-4.693-4.31-4.693v2zm4.107 9.216c-1.295-.593-2.689-.807-4.104-.807v2c1.219 0 2.31.184 3.271.625l.833-1.818zm-4.104-.806c-3.513 0-7.199 1.763-8.136 5.521l1.941.484c.632-2.536 3.208-4.004 6.195-4.004v-2zm-8.136 5.522c-.225.907.343 2.069 1.556 2.069v-2c.135 0 .264.075.334.178.062.09.065.178.051.234l-1.941-.481zm1.556 2.068h7.018v-2H2.608v2z"/></symbol><symbol id="icon_no-symbol" viewBox="0 0 32 32"><path fill="var(--color1, #1d2087)" d="M9.542 7.847l14.61 14.61a10.397 10.397 0 00-.8-13.81 10.402 10.402 0 00-13.81-.8zm12.912 16.307L7.844 9.544a10.397 10.397 0 00.8 13.81 10.402 10.402 0 0013.81.8zM6.947 6.95a12.812 12.812 0 019.052-3.749 12.803 12.803 0 0111.826 7.902 12.811 12.811 0 01-2.775 13.95 12.798 12.798 0 01-21.851-9.051 12.8 12.8 0 013.749-9.051z"/></symbol><symbol id="icon_money" viewBox="0 0 32 32"><path fill="none" stroke-width="2" d="M19.879 20c0-1.052-3.039-1.905-6.788-1.905M19.879 20c0 1.052-3.039 1.905-6.788 1.905S6.303 21.053 6.303 20m13.576 0v4.702c0 1.085-3.039 1.965-6.788 1.965s-6.788-.879-6.788-1.965V20m13.576 0c3.708 0 6.788-.94 6.788-1.905V8.571m-13.576 9.524c-3.749 0-6.788.852-6.788 1.905m6.788-1.905c-4.284 0-7.758-.94-7.758-1.905v-4.762m7.758-1.904c-4.284 0-7.758.852-7.758 1.905m0 0c0 1.052 3.473 1.905 7.758 1.905 0 .965 3.154 1.905 6.863 1.905s6.713-.94 6.713-1.905m0-4.763c0-1.052-3.006-1.905-6.713-1.905s-6.713.852-6.713 1.905m13.426 0c0 1.052-3.006 1.905-6.713 1.905s-6.713-.852-6.713-1.905m-.001 0v9.682" stroke="var(--color1, #1d2087)"/></symbol><symbol id="icon_map" viewBox="0 0 32 32"><path d="M16.533 6.206c3.08 0 5.6 2.469 5.6 5.486 0 2.88-2.94 7.543-5.6 10.834-2.66-3.429-5.6-7.954-5.6-10.834 0-3.017 2.52-5.486 5.6-5.486zm0-2.742c-4.62 0-8.4 3.703-8.4 8.229 0 6.171 8.4 15.086 8.4 15.086s8.4-9.051 8.4-15.086c0-4.526-3.78-8.229-8.4-8.229zm0 5.485c-1.54 0-2.8 1.234-2.8 2.743s1.26 2.743 2.8 2.743c1.54 0 2.8-1.234 2.8-2.743s-1.26-2.743-2.8-2.743zm11.2 17.829c0 3.017-5.04 5.486-11.2 5.486s-11.2-2.469-11.2-5.486c0-1.783 1.68-3.291 4.34-4.389l.84 1.234c-1.4.686-2.38 1.509-2.38 2.469 0 1.92 3.78 3.429 8.4 3.429s8.4-1.509 8.4-3.429c0-.96-.98-1.783-2.52-2.469l.84-1.234c2.8 1.097 4.48 2.606 4.48 4.389z"/></symbol><symbol id="icon_calendar" viewBox="0 0 32 32"><path d="M9.333 16.268H12v2.667H9.333v-2.667zm18.667-8v18.667a2.658 2.658 0 01-2.667 2.667H6.666a2.668 2.668 0 01-2.667-2.667V8.268c0-1.467 1.2-2.667 2.667-2.667h1.333V2.934h2.667v2.667h10.667V2.934H24v2.667h1.333A2.67 2.67 0 0128 8.268zM6.667 10.935h18.667V8.268H6.667v2.667zm18.666 16V13.602H6.666v13.333h18.667zm-5.333-8v-2.667h2.667v2.667H20zm-5.333 0v-2.667h2.667v2.667h-2.667zm-5.334 2.667H12v2.667H9.333v-2.667zM20 24.268v-2.667h2.667v2.667H20zm-5.333 0v-2.667h2.667v2.667h-2.667z"/></symbol><symbol id="icon-small_arrow" viewBox="0 0 64 32"><path fill="none" stroke="var(--color1, #1d2087)" stroke-linejoin="round" stroke-linecap="round" stroke-width="8" d="M2.901 2.667l29.091 26.667L61.083 2.667"/></symbol><symbol id="icon-bi_quote" viewBox="0 0 32 32"><path fill="var(--color1, #1d2087)" d="M24 24a2 2 0 002-2v-4.884a2 2 0 00-2-2h-2.776c0-.702.042-1.406.124-2.108a7.018 7.018 0 01.62-1.984c.29-.58.662-1.034 1.118-1.366.454-.372 1.032-.558 1.736-.558V6c-1.158 0-2.17.248-3.04.744a6.649 6.649 0 00-2.17 1.984 9.841 9.841 0 00-1.24 2.916A15.417 15.417 0 0018 15.116V22a2 2 0 002 2h4zm-12 0a2 2 0 002-2v-4.884a2 2 0 00-2-2H9.224c0-.702.042-1.406.124-2.108a7.018 7.018 0 01.62-1.984c.29-.58.662-1.034 1.118-1.366.454-.372 1.032-.558 1.736-.558V6c-1.158 0-2.17.248-3.04.744a6.649 6.649 0 00-2.17 1.984 9.841 9.841 0 00-1.24 2.916A15.417 15.417 0 006 15.116V22a2 2 0 002 2h4z"/></symbol><symbol id="icon-copy_doc" viewBox="0 0 21 20" fill="none"><path d="M7.164 3.33v10a1.666 1.666 0 001.667 1.667h6.666a1.667 1.667 0 001.667-1.666V6.032a1.669 1.669 0 00-.502-1.191L13.9 2.139a1.667 1.667 0 00-1.165-.475H8.83a1.667 1.667 0 00-1.667 1.667z" stroke-linecap="round" stroke-linejoin="round"/><path d="M13.832 14.995v1.667a1.667 1.667 0 01-1.667 1.666H5.5a1.667 1.667 0 01-1.667-1.666V7.495A1.667 1.667 0 015.5 5.828h1.666" stroke-linecap="round" stroke-linejoin="round"/><path d="M7.582 2.917v10a1.667 1.667 0 001.667 1.666h6.666a1.667 1.667 0 001.667-1.666V5.618a1.667 1.667 0 00-.502-1.191l-2.762-2.702a1.667 1.667 0 00-1.165-.475H9.249a1.667 1.667 0 00-1.667 1.667z" stroke-linecap="round" stroke-linejoin="round"/><path d="M14.25 14.58v1.667a1.667 1.667 0 01-1.667 1.667H5.917a1.667 1.667 0 01-1.667-1.667V7.081a1.667 1.667 0 011.667-1.667h1.666" stroke-linecap="round" stroke-linejoin="round"/></symbol><symbol id="icon-checkmark" viewBox="0 0 32 32"><path d="M27 4L12 19l-7-7-5 5 12 12L32 9z"/></symbol><symbol id="icon_PayU" viewBox="0 0 88 32"><path d="M53.647 11.911c-.437 0-.728-.298-.728-.744V7.893h-.291c-1.674 0-2.256.298-2.256 1.86v9.6c0 .595-.146 1.116-.364 1.488-.437.744-1.383 1.042-2.766 1.042-1.456 0-2.329-.298-2.766-1.042-.218-.372-.364-.893-.364-1.488v-9.6c0-1.563-.582-1.86-2.256-1.86h-.51c-1.674 0-2.256.298-2.256 1.86v9.6c0 1.563.364 2.828 1.019 3.87 1.237 2.009 3.712 3.126 7.206 3.126s5.969-1.116 7.206-3.126c.655-1.042 1.019-2.381 1.019-3.87v-7.442h-1.892zm4.943-9.232h2.766c.291 0 .51.223.51.521v2.828a.503.503 0 01-.51.521H58.59a.504.504 0 01-.51-.521V3.2c0-.298.218-.521.51-.521zM55.828 0h1.892c.218 0 .364.149.364.372v1.935c0 .223-.146.372-.364.372h-1.892c-.218 0-.364-.149-.364-.372V.372c0-.223.218-.372.364-.372zM7.06 7.893H3.057C.946 7.893 0 8.86 0 11.019V25.01c0 .819.291 1.116 1.092 1.116h.291c.801 0 1.092-.298 1.092-1.116v-5.433h4.586c4.076 0 6.041-1.86 6.041-5.879s-1.965-5.805-6.041-5.805zm3.567 5.804c0 2.307-.582 3.498-3.567 3.498H2.474v-5.879c0-.819.291-1.116 1.092-1.116H7.06c2.256.074 3.567.595 3.567 3.498zm7.568-1.786c-1.601 0-2.548.223-2.912.298-.655.149-.946.298-.946 1.116v.223c0 .298.073.521.146.67a.653.653 0 00.509.223c.146 0 .218 0 .437-.074a15.868 15.868 0 012.911-.298c2.402 0 3.348.67 3.348 2.307v1.488h-2.984c-3.858 0-5.678 1.34-5.678 4.167s1.893 4.316 5.241 4.316c4.003 0 5.823-1.414 5.823-4.54v-5.432c-.073-2.977-1.965-4.465-5.896-4.465zm3.493 7.888v1.935c0 1.563-.582 2.456-3.494 2.456-1.893 0-2.839-.67-2.839-2.158 0-1.563.946-2.233 3.348-2.233h2.984zm15.578-7.219c-.146-.223-.51-.223-.801-.223h-.218c-.801 0-1.092.223-1.31 1.042l-2.256 9.526c-.291 1.191-.655 1.414-1.31 1.414-.801 0-1.165-.223-1.456-1.414l-2.548-9.526c-.218-.819-.509-1.042-1.31-1.042h-.218c-.291 0-.655 0-.801.223s-.145.521 0 .893l2.548 9.6c.51 1.861 1.019 3.349 3.203 3.349.364 0 .728-.074 1.092-.149-.655 2.084-1.31 2.977-3.275 3.2-.364 0-.655.075-.801.298s-.146.521-.073.744l.073.223c.146.595.291.893.946.893h.218c2.912-.223 4.44-1.786 5.386-5.507l3.13-12.651c-.146-.372-.073-.744-.218-.893z"/><path d="M57.36 6.625h-3.712c-.437 0-.728.298-.728.744v.521h.291c1.674 0 2.256.298 2.256 1.86v2.232h1.892c.437 0 .728-.298.728-.744v-3.87c0-.447-.291-.744-.728-.744zm22.561 10.563c-.655 0-1.019.149-1.237.372s-.291.67-.291 1.191v1.563c0 .595.073.968.291 1.191s.655.372 1.237.372 1.019-.149 1.237-.372c.218-.223.291-.67.291-1.191v-1.563c0-.595-.073-.967-.291-1.191-.145-.223-.582-.372-1.237-.372zm-6.336.151h-1.31c-.218 0-.364.149-.364.372v1.786h1.674c.364 0 .582-.074.728-.223s.218-.447.218-.819c0-.372-.073-.595-.218-.819-.073-.223-.364-.298-.728-.298z"/><path d="M81.671 13.098H65.075c-3.494 0-6.405 2.902-6.405 6.549s2.839 6.549 6.405 6.549h16.523c3.494 0 6.405-2.902 6.405-6.549s-2.839-6.549-6.332-6.549zm-12.374 8.633c0 .521-.073.893-.218 1.191-.146.223-.437.372-.946.447-.291.074-.582.074-.946.074-1.237 0-2.111-.223-2.693-.67s-.801-1.191-.801-2.233v-1.786c0-.893.291-1.563.873-2.084s1.456-.744 2.548-.744c.51 0 1.019.074 1.456.223.218.074.437.149.51.298.073.074.145.298.145.521v.074c0 .298-.073.447-.145.521s-.218.074-.51 0a4.474 4.474 0 00-1.383-.223c-.728 0-1.237.149-1.529.372s-.437.67-.437 1.265v1.786c0 .447.146.819.437 1.042s.801.372 1.529.372h.437c.218 0 .291-.149.291-.372v-1.86c0-.223.073-.447.146-.521s.291-.149.51-.149h.073c.218 0 .437.074.51.149s.145.298.145.521v1.786zm4.367-.893H71.99v1.786c0 .223-.073.447-.146.521s-.291.149-.51.149h-.218c-.291 0-.437-.074-.51-.149s-.145-.298-.145-.521v-5.358c0-.446.073-.819.291-1.042s.582-.298 1.019-.298h1.82c1.674 0 2.475.819 2.475 2.456s-.801 2.456-2.402 2.456zm9.317-.447c0 .967-.218 1.712-.655 2.233s-1.237.819-2.402.819-1.965-.298-2.402-.819-.655-1.265-.655-2.233v-1.563c0-.967.218-1.712.655-2.233s1.237-.819 2.402-.819 1.965.298 2.402.819.655 1.265.655 2.233v1.563z"/></symbol><symbol id="icon-youtube" viewBox="0 0 32 32"><path d="M13.333 20l6.92-4-6.92-4v8zM28.746 9.56c.173.627.293 1.467.373 2.533.093 1.067.133 1.987.133 2.787l.08 1.12c0 2.92-.213 5.067-.587 6.44-.333 1.2-1.107 1.973-2.307 2.307-.627.173-1.773.293-3.533.373-1.733.093-3.32.133-4.787.133l-2.12.08c-5.587 0-9.067-.213-10.44-.587-1.2-.333-1.973-1.107-2.307-2.307-.173-.627-.293-1.467-.373-2.533a32.213 32.213 0 01-.133-2.787l-.08-1.12c0-2.92.213-5.067.587-6.44.333-1.2 1.107-1.973 2.307-2.307.627-.173 1.773-.293 3.533-.373a89.186 89.186 0 014.787-.133l2.12-.08c5.587 0 9.067.213 10.44.587 1.2.333 1.973 1.107 2.307 2.307z"/></symbol></defs></svg>