<svg aria-hidden="true" style="position: absolute; width: 0; height: 0; overflow: hidden;" version="1.1" xmlns="http://www.w3.org/2000/svg" xmlns:xlink="http://www.w3.org/1999/xlink">
<defs>
<symbol id="arrow-right" viewBox="0 0 32 32">
<path d="M5.333 15c-0.552 0-1 0.448-1 1s0.448 1 1 1v-2zM27.374 16.707c0.391-0.391 0.391-1.024 0-1.414l-6.364-6.364c-0.39-0.391-1.024-0.391-1.414 0s-0.391 1.024 0 1.414l5.657 5.657-5.657 5.657c-0.391 0.39-0.391 1.024 0 1.414s1.024 0.391 1.414 0l6.364-6.364zM5.333 17h21.333v-2h-21.333v2z"></path>
</symbol>
<symbol id="arrow-left" viewBox="0 0 32 32">
<path d="M26.667 17c0.552 0 1-0.448 1-1s-0.448-1-1-1v2zM4.626 15.293c-0.391 0.391-0.391 1.024 0 1.414l6.364 6.364c0.391 0.391 1.024 0.391 1.414 0s0.39-1.024 0-1.414l-5.657-5.657 5.657-5.657c0.39-0.39 0.39-1.024 0-1.414s-1.024-0.391-1.414 0l-6.364 6.364zM26.667 15h-21.333v2h21.333v-2z"></path>
</symbol>
<symbol id="icon-prime_copy" viewBox="0 0 32 32">
<path d="M26.040 10.667l-7.373-7.373c-0.187-0.188-0.442-0.293-0.707-0.293h-3.293c-0.972 0-1.905 0.386-2.593 1.074s-1.074 1.62-1.074 2.593v1.667h-1.667c-0.972 0-1.905 0.386-2.593 1.074s-1.074 1.62-1.074 2.593v13.333c0 0.972 0.386 1.905 1.074 2.593s1.62 1.074 2.593 1.074h9.333c0.972 0 1.905-0.386 2.593-1.074s1.074-1.62 1.074-2.593v-1.667h0.333c0.972 0 1.905-0.386 2.593-1.074s1.074-1.62 1.074-2.593v-8.667c-0.011-0.251-0.115-0.489-0.293-0.667zM19 6.413l3.92 3.92h-3.92v-3.92zM20.333 25.333c0 0.442-0.176 0.866-0.488 1.179s-0.737 0.488-1.179 0.488h-9.333c-0.442 0-0.866-0.176-1.178-0.488s-0.488-0.737-0.488-1.179v-13.333c0-0.442 0.176-0.866 0.488-1.178s0.736-0.488 1.178-0.488h1.667v9.667c0 0.972 0.386 1.905 1.074 2.593s1.62 1.074 2.593 1.074h5.667v1.667zM22.667 21.667h-8c-0.442 0-0.866-0.176-1.179-0.488s-0.488-0.737-0.488-1.179v-13.333c0-0.442 0.176-0.866 0.488-1.178s0.737-0.488 1.179-0.488h2.333v6.333c0.003 0.264 0.11 0.517 0.297 0.703s0.439 0.293 0.703 0.297h6.333v7.667c0 0.442-0.176 0.866-0.488 1.179s-0.737 0.488-1.179 0.488z"></path>
</symbol>
<symbol id="cross-icon" viewBox="0 0 32 32">
<path d="M16 17.866l-6.533 6.533c-0.244 0.244-0.556 0.367-0.933 0.367s-0.689-0.122-0.933-0.367c-0.244-0.244-0.367-0.556-0.367-0.933s0.122-0.689 0.367-0.933l6.533-6.533-6.533-6.533c-0.244-0.244-0.367-0.556-0.367-0.933s0.122-0.689 0.367-0.933c0.244-0.244 0.556-0.367 0.933-0.367s0.689 0.122 0.933 0.367l6.533 6.533 6.533-6.533c0.244-0.244 0.556-0.367 0.933-0.367s0.689 0.122 0.933 0.367c0.244 0.244 0.367 0.556 0.367 0.933s-0.122 0.689-0.367 0.933l-6.533 6.533 6.533 6.533c0.244 0.244 0.367 0.556 0.367 0.933s-0.122 0.689-0.367 0.933c-0.244 0.244-0.556 0.367-0.933 0.367s-0.689-0.122-0.933-0.367l-6.533-6.533z"></path>
</symbol>
<symbol id="minus-icon" viewBox="0 0 32 32">
<path d="M24 17.331h-16c-0.354 0-0.693-0.14-0.943-0.39s-0.391-0.589-0.391-0.943c0-0.354 0.14-0.693 0.391-0.943s0.589-0.39 0.943-0.39h16c0.354 0 0.693 0.14 0.943 0.39s0.391 0.589 0.391 0.943c0 0.354-0.14 0.693-0.391 0.943s-0.589 0.39-0.943 0.39z"></path>
</symbol>
<symbol id="plus-icon" viewBox="0 0 32 32">
<path d="M24 17.331h-6.667v6.667c0 0.354-0.14 0.693-0.391 0.943s-0.589 0.39-0.943 0.39-0.693-0.14-0.943-0.39c-0.25-0.25-0.39-0.589-0.39-0.943v-6.667h-6.667c-0.354 0-0.693-0.14-0.943-0.39s-0.391-0.589-0.391-0.943c0-0.354 0.14-0.693 0.391-0.943s0.589-0.39 0.943-0.39h6.667v-6.667c0-0.354 0.14-0.693 0.39-0.943s0.589-0.391 0.943-0.391c0.354 0 0.693 0.14 0.943 0.391s0.391 0.589 0.391 0.943v6.667h6.667c0.354 0 0.693 0.14 0.943 0.39s0.391 0.589 0.391 0.943c0 0.354-0.14 0.693-0.391 0.943s-0.589 0.39-0.943 0.39z"></path>
</symbol>
<symbol id="facebook" viewBox="0 0 20 20">
<path d="M18.3346 9.99935C18.3346 5.39935 14.6013 1.66602 10.0013 1.66602C5.4013 1.66602 1.66797 5.39935 1.66797 9.99935C1.66797 14.0327 4.53464 17.391 8.33464 18.166V12.4993H6.66797V9.99935H8.33464V7.91602C8.33464 6.30768 9.64297 4.99935 11.2513 4.99935H13.3346V7.49935H11.668C11.2096 7.49935 10.8346 7.87435 10.8346 8.33268V9.99935H13.3346V12.4993H10.8346V18.291C15.043 17.8743 18.3346 14.3243 18.3346 9.99935Z"/>
<symbol>
<symbol id="telegram" viewBox="0 0 20 20">
<path d="M10.0013 1.66602C5.4013 1.66602 1.66797 5.39935 1.66797 9.99935C1.66797 14.5993 5.4013 18.3327 10.0013 18.3327C14.6013 18.3327 18.3346 14.5993 18.3346 9.99935C18.3346 5.39935 14.6013 1.66602 10.0013 1.66602ZM13.868 7.33268C13.743 8.64935 13.2013 11.8493 12.9263 13.3243C12.8096 13.9493 12.5763 14.1577 12.3596 14.1827C11.8763 14.2243 11.5096 13.866 11.043 13.5577C10.3096 13.0744 9.89297 12.7744 9.18464 12.3077C8.35964 11.766 8.89297 11.466 9.36797 10.9827C9.49297 10.8577 11.6263 8.91602 11.668 8.74102C11.6738 8.71451 11.673 8.68699 11.6657 8.66085C11.6585 8.63471 11.6449 8.61074 11.6263 8.59102C11.5763 8.54935 11.5096 8.56602 11.4513 8.57435C11.3763 8.59102 10.2096 9.36602 7.93464 10.8993C7.6013 11.1243 7.3013 11.241 7.03464 11.2327C6.73463 11.2243 6.16797 11.066 5.74297 10.9243C5.21797 10.7577 4.80964 10.666 4.84297 10.3743C4.85964 10.2243 5.06797 10.0743 5.45964 9.91602C7.89297 8.85768 9.50964 8.15768 10.318 7.82435C12.6346 6.85768 13.1096 6.69102 13.4263 6.69102C13.493 6.69102 13.6513 6.70768 13.7513 6.79102C13.8346 6.85768 13.8596 6.94935 13.868 7.01602C13.8596 7.06602 13.8763 7.21602 13.868 7.33268Z"/>
</symbol>
<symbol id="instagram" viewBox="0 0 20 20">
<path d="M10.8545 1.66602C11.792 1.66852 12.2679 1.67352 12.6787 1.68518L12.8404 1.69102C13.027 1.69768 13.2112 1.70602 13.4337 1.71602C14.3204 1.75768 14.9254 1.89768 15.4562 2.10352C16.0062 2.31518 16.4695 2.60185 16.9329 3.06435C17.3566 3.48093 17.6845 3.98484 17.8937 4.54102C18.0995 5.07185 18.2395 5.67685 18.2812 6.56435C18.2912 6.78602 18.2995 6.97018 18.3062 7.15768L18.3112 7.31935C18.3237 7.72935 18.3287 8.20518 18.3304 9.14268L18.3312 9.76435V10.856C18.3333 11.4639 18.3269 12.0717 18.312 12.6793L18.307 12.841C18.3004 13.0285 18.292 13.2127 18.282 13.4343C18.2404 14.3218 18.0987 14.926 17.8937 15.4577C17.6851 16.0142 17.3571 16.5182 16.9329 16.9344C16.5162 17.3579 16.0123 17.6858 15.4562 17.8952C14.9254 18.101 14.3204 18.241 13.4337 18.2827C13.236 18.292 13.0382 18.3003 12.8404 18.3077L12.6787 18.3127C12.2679 18.3244 11.792 18.3302 10.8545 18.3319L10.2329 18.3327H9.14204C8.53393 18.3348 7.92581 18.3284 7.31788 18.3135L7.15621 18.3085C6.95839 18.301 6.7606 18.2924 6.56288 18.2827C5.67621 18.241 5.07121 18.101 4.53954 17.8952C3.98343 17.6863 3.47972 17.3584 3.06371 16.9344C2.63958 16.5179 2.3114 16.014 2.10204 15.4577C1.89621 14.9268 1.75621 14.3218 1.71454 13.4343C1.70526 13.2366 1.69693 13.0388 1.68954 12.841L1.68538 12.6793C1.67002 12.0717 1.66307 11.4639 1.66454 10.856V9.14268C1.66222 8.53485 1.66833 7.92701 1.68288 7.31935L1.68871 7.15768C1.69538 6.97018 1.70371 6.78602 1.71371 6.56435C1.75538 5.67685 1.89538 5.07268 2.10121 4.54102C2.31047 3.98427 2.63931 3.4802 3.06454 3.06435C3.48045 2.64058 3.98383 2.31267 4.53954 2.10352C5.07121 1.89768 5.67538 1.75768 6.56288 1.71602C6.78454 1.70602 6.96954 1.69768 7.15621 1.69102L7.31788 1.68602C7.92554 1.67121 8.53337 1.66482 9.14121 1.66685L10.8545 1.66602ZM9.99788 5.83268C8.89281 5.83268 7.833 6.27167 7.0516 7.05307C6.2702 7.83447 5.83121 8.89428 5.83121 9.99935C5.83121 11.1044 6.2702 12.1642 7.0516 12.9456C7.833 13.727 8.89281 14.166 9.99788 14.166C11.1029 14.166 12.1628 13.727 12.9442 12.9456C13.7256 12.1642 14.1645 11.1044 14.1645 9.99935C14.1645 8.89428 13.7256 7.83447 12.9442 7.05307C12.1628 6.27167 11.1029 5.83268 9.99788 5.83268ZM9.99788 7.49935C10.3262 7.49929 10.6513 7.56391 10.9546 7.68949C11.258 7.81508 11.5336 7.99918 11.7658 8.23129C11.998 8.4634 12.1821 8.73896 12.3078 9.04226C12.4335 9.34555 12.4982 9.67063 12.4983 9.99893C12.4983 10.3272 12.4337 10.6523 12.3082 10.9557C12.1826 11.259 11.9985 11.5346 11.7664 11.7668C11.5342 11.999 11.2587 12.1832 10.9554 12.3089C10.6521 12.4346 10.327 12.4993 9.99871 12.4993C9.33567 12.4993 8.69978 12.236 8.23094 11.7671C7.7621 11.2983 7.49871 10.6624 7.49871 9.99935C7.49871 9.33631 7.7621 8.70042 8.23094 8.23158C8.69978 7.76274 9.33567 7.49935 9.99871 7.49935M14.3737 4.58268C14.0974 4.58268 13.8325 4.69243 13.6371 4.88778C13.4418 5.08313 13.332 5.34808 13.332 5.62435C13.332 5.90062 13.4418 6.16557 13.6371 6.36092C13.8325 6.55627 14.0974 6.66602 14.3737 6.66602C14.65 6.66602 14.9149 6.55627 15.1103 6.36092C15.3056 6.16557 15.4154 5.90062 15.4154 5.62435C15.4154 5.34808 15.3056 5.08313 15.1103 4.88778C14.9149 4.69243 14.65 4.58268 14.3737 4.58268Z"/>
</symbol> 
<symbol id="phone" viewBox="0 0 20 20">
<path d="M5.51667 8.99167C6.71667 11.35 8.65 13.275 11.0083 14.4833L12.8417 12.65C13.0667 12.425 13.4 12.35 13.6917 12.45C14.625 12.7583 15.6333 12.925 16.6667 12.925C17.125 12.925 17.5 13.3 17.5 13.7583V16.6667C17.5 17.125 17.125 17.5 16.6667 17.5C8.84167 17.5 2.5 11.1583 2.5 3.33333C2.5 2.875 2.875 2.5 3.33333 2.5H6.25C6.70833 2.5 7.08333 2.875 7.08333 3.33333C7.08333 4.375 7.25 5.375 7.55833 6.30833C7.65 6.6 7.58333 6.925 7.35 7.15833L5.51667 8.99167Z"/>
</symbol>
<symbol id="mail" viewBox="0 0 20 20">
<path d="M16.668 3.33398H3.33464C2.41797 3.33398 1.6763 4.08398 1.6763 5.00065L1.66797 15.0007C1.66797 15.9173 2.41797 16.6673 3.33464 16.6673H16.668C17.5846 16.6673 18.3346 15.9173 18.3346 15.0007V5.00065C18.3346 4.08398 17.5846 3.33398 16.668 3.33398ZM16.668 6.66732L10.0013 10.834L3.33464 6.66732V5.00065L10.0013 9.16732L16.668 5.00065V6.66732Z"/>
</symbol> 
<symbol id="close" viewBox="0 0 32 32">
<path d="M15.999 17.866l-6.533 6.533c-0.244 0.244-0.556 0.367-0.933 0.367s-0.689-0.122-0.933-0.367c-0.244-0.244-0.367-0.556-0.367-0.933s0.122-0.689 0.367-0.933l6.533-6.533-6.533-6.533c-0.244-0.244-0.367-0.556-0.367-0.933s0.122-0.689 0.367-0.933c0.244-0.244 0.556-0.367 0.933-0.367s0.689 0.122 0.933 0.367l6.533 6.533 6.533-6.533c0.244-0.244 0.556-0.367 0.933-0.367s0.689 0.122 0.933 0.367c0.244 0.244 0.367 0.556 0.367 0.933s-0.122 0.689-0.367 0.933l-6.533 6.533 6.533 6.533c0.244 0.244 0.367 0.556 0.367 0.933s-0.122 0.689-0.367 0.933c-0.244 0.244-0.556 0.367-0.933 0.367s-0.689-0.122-0.933-0.367l-6.533-6.533z"></path>
</symbol>
<symbol id="icon-arrow-down" viewBox="0 0 51 32">
<path fill="none" stroke-linejoin="round" stroke-linecap="round" stroke-miterlimit="4" d="M2.326 2.665l23.273 26.667 23.273-26.667"></path>
</symbol>
<symbol id="btn-to-top" viewBox="0 0 22 30">
<path d="M11 1L1 9.68966M11 1L21 9.68966M11 1V29" stroke="currentColor" stroke-width="2" stroke-linecap="round" stroke-linejoin="round"/>
</symbol>
</defs>
</svg>
