<svg aria-hidden="true" style="position:absolute;width:0;height:0" xmlns="http://www.w3.org/2000/svg" overflow="hidden"><defs><symbol id="arrow-right" viewBox="0 0 32 32"><path d="M5.333 15a1 1 0 000 2v-2zm22.041 1.707a.999.999 0 000-1.414L21.01 8.929a.999.999 0 10-1.414 1.414L25.253 16l-5.657 5.657a.999.999 0 101.414 1.414l6.364-6.364zM5.333 17h21.333v-2H5.333v2z"/></symbol><symbol id="arrow-left" viewBox="0 0 32 32"><path d="M26.667 17a1 1 0 000-2v2zM4.626 15.293a.999.999 0 000 1.414l6.364 6.364a.999.999 0 101.414-1.414L6.747 16l5.657-5.657a1 1 0 00-1.414-1.414l-6.364 6.364zM26.667 15H5.334v2h21.333v-2z"/></symbol><symbol id="icon-prime_copy" viewBox="0 0 32 32"><path d="M26.04 10.667l-7.373-7.373a.997.997 0 00-.707-.293h-3.293A3.667 3.667 0 0011 6.668v1.667H9.333a3.667 3.667 0 00-3.667 3.667v13.333a3.667 3.667 0 003.667 3.667h9.333a3.667 3.667 0 003.667-3.667v-1.667h.333a3.667 3.667 0 003.667-3.667v-8.667a1.005 1.005 0 00-.293-.667zM19 6.413l3.92 3.92H19v-3.92zm1.333 18.92A1.665 1.665 0 0118.666 27H9.333a1.667 1.667 0 01-1.666-1.667V12a1.667 1.667 0 011.666-1.666H11v9.667a3.667 3.667 0 003.667 3.667h5.667v1.667zm2.334-3.666h-8A1.665 1.665 0 0113 20V6.667a1.667 1.667 0 011.667-1.666H17v6.333c.003.264.11.517.297.703s.439.293.703.297h6.333v7.667a1.665 1.665 0 01-1.667 1.667z"/></symbol></defs></svg>