<svg aria-hidden="true" style="position:absolute;width:0;height:0" xmlns="http://www.w3.org/2000/svg" overflow="hidden"><defs><symbol id="arrow-right" viewBox="0 0 32 32"><path d="M5.333 15a1 1 0 000 2v-2zm22.041 1.707a.999.999 0 000-1.414L21.01 8.929a.999.999 0 10-1.414 1.414L25.253 16l-5.657 5.657a.999.999 0 101.414 1.414l6.364-6.364zM5.333 17h21.333v-2H5.333v2z"/></symbol><symbol id="arrow-left" viewBox="0 0 32 32"><path d="M26.667 17a1 1 0 000-2v2zM4.626 15.293a.999.999 0 000 1.414l6.364 6.364a.999.999 0 101.414-1.414L6.747 16l5.657-5.657a1 1 0 00-1.414-1.414l-6.364 6.364zM26.667 15H5.334v2h21.333v-2z"/></symbol><symbol id="icon-prime_copy" viewBox="0 0 32 32"><path d="M26.04 10.667l-7.373-7.373a.997.997 0 00-.707-.293h-3.293A3.667 3.667 0 0011 6.668v1.667H9.333a3.667 3.667 0 00-3.667 3.667v13.333a3.667 3.667 0 003.667 3.667h9.333a3.667 3.667 0 003.667-3.667v-1.667h.333a3.667 3.667 0 003.667-3.667v-8.667a1.005 1.005 0 00-.293-.667zM19 6.413l3.92 3.92H19v-3.92zm1.333 18.92A1.665 1.665 0 0118.666 27H9.333a1.667 1.667 0 01-1.666-1.667V12a1.667 1.667 0 011.666-1.666H11v9.667a3.667 3.667 0 003.667 3.667h5.667v1.667zm2.334-3.666h-8A1.665 1.665 0 0113 20V6.667a1.667 1.667 0 011.667-1.666H17v6.333c.003.264.11.517.297.703s.439.293.703.297h6.333v7.667a1.665 1.665 0 01-1.667 1.667z"/></symbol><symbol id="cross-icon" viewBox="0 0 32 32"><path d="M16 17.866l-6.533 6.533c-.244.244-.556.367-.933.367s-.689-.122-.933-.367c-.244-.244-.367-.556-.367-.933s.122-.689.367-.933L14.134 16 7.601 9.467c-.244-.244-.367-.556-.367-.933s.122-.689.367-.933c.244-.244.556-.367.933-.367s.689.122.933.367L16 14.134l6.533-6.533c.244-.244.556-.367.933-.367s.689.122.933.367c.244.244.367.556.367.933s-.122.689-.367.933L17.866 16l6.533 6.533c.244.244.367.556.367.933s-.122.689-.367.933c-.244.244-.556.367-.933.367s-.689-.122-.933-.367L16 17.866z"/></symbol><symbol id="minus-icon" viewBox="0 0 32 32"><path d="M24 17.331H8a1.333 1.333 0 110-2.666h16a1.333 1.333 0 110 2.666z"/></symbol><symbol id="plus-icon" viewBox="0 0 32 32"><path d="M24 17.331h-6.667v6.667a1.33 1.33 0 01-1.334 1.333 1.333 1.333 0 01-1.333-1.333v-6.667H7.999a1.333 1.333 0 110-2.666h6.667V7.998a1.333 1.333 0 112.667 0v6.667H24a1.333 1.333 0 110 2.666z"/></symbol><symbol id="facebook" viewBox="0 0 20 20"><path d="M18.335 10c0-4.6-3.734-8.334-8.334-8.334a8.336 8.336 0 00-8.333 8.333c0 4.034 2.867 7.392 6.667 8.167v-5.667H6.668V10h1.667V7.916a2.92 2.92 0 012.916-2.917h2.084v2.5h-1.667a.836.836 0 00-.833.834v1.666h2.5v2.5h-2.5v5.792a8.332 8.332 0 007.5-8.292z"/></symbol><symbol id="telegram" viewBox="0 0 20 20"><path d="M10.001 1.666a8.336 8.336 0 00-8.333 8.333c0 4.6 3.733 8.334 8.333 8.334s8.334-3.734 8.334-8.334S14.6 1.666 10 1.666zm3.867 5.667c-.125 1.316-.667 4.516-.942 5.991-.116.625-.35.834-.566.859-.484.041-.85-.317-1.317-.625-.733-.484-1.15-.784-1.858-1.25-.825-.542-.292-.842.183-1.325.125-.125 2.258-2.067 2.3-2.242a.166.166 0 00-.042-.15c-.05-.042-.116-.025-.175-.017-.075.017-1.241.792-3.516 2.325-.334.225-.634.342-.9.334-.3-.009-.867-.167-1.292-.309-.525-.166-.933-.258-.9-.55.017-.15.225-.3.617-.458a374.151 374.151 0 014.858-2.092c2.317-.966 2.792-1.133 3.108-1.133.067 0 .225.017.325.1a.331.331 0 01.117.225c-.008.05.008.2 0 .317z"/></symbol><symbol id="instagram" viewBox="0 0 20 20"><path d="M10.854 1.666c.938.003 1.414.008 1.825.02l.161.005.594.025c.886.042 1.491.182 2.022.388.55.211 1.014.498 1.477.96.424.417.752.92.96 1.477.206.53.346 1.136.388 2.023l.025.594.005.161c.013.41.018.886.02 1.824v1.713c.002.608-.004 1.216-.019 1.823l-.005.162-.025.593c-.042.888-.183 1.492-.388 2.024a4.07 4.07 0 01-.961 1.476c-.417.424-.92.752-1.477.961-.53.206-1.136.346-2.022.388l-.594.025-.161.005a73.06 73.06 0 01-1.825.019H9.143a65.253 65.253 0 01-1.824-.018l-.162-.006a53.386 53.386 0 01-.593-.025c-.887-.042-1.492-.182-2.023-.388a4.075 4.075 0 01-1.476-.96 4.087 4.087 0 01-.962-1.477c-.206-.531-.346-1.136-.387-2.024a62.11 62.11 0 01-.025-.593l-.005-.162a65.846 65.846 0 01-.02-1.823V9.143c-.003-.608.003-1.216.018-1.824l.006-.161c.006-.188.015-.372.025-.594.041-.887.181-1.491.387-2.023.21-.557.538-1.06.964-1.477a4.08 4.08 0 011.475-.96c.531-.206 1.135-.346 2.023-.388l.593-.025.162-.005a65.813 65.813 0 011.823-.02h1.713zm-.856 4.167a4.167 4.167 0 100 8.333 4.167 4.167 0 000-8.333zm0 1.666a2.5 2.5 0 110 5 2.5 2.5 0 010-5m4.376-2.916a1.042 1.042 0 100 2.083 1.042 1.042 0 000-2.083z"/></symbol><symbol id="phone" viewBox="0 0 20 20"><path d="M5.517 8.992a12.624 12.624 0 005.491 5.491l1.834-1.833a.829.829 0 01.85-.2 9.506 9.506 0 002.975.475c.458 0 .833.375.833.833v2.909a.836.836 0 01-.833.833C8.842 17.5 2.5 11.158 2.5 3.333c0-.458.375-.833.833-.833H6.25c.458 0 .833.375.833.833 0 1.042.167 2.042.475 2.975a.836.836 0 01-.208.85L5.517 8.992z"/></symbol><symbol id="mail" viewBox="0 0 20 20"><path d="M16.668 3.334H3.335c-.917 0-1.659.75-1.659 1.667l-.008 10c0 .916.75 1.666 1.667 1.666h13.333c.917 0 1.667-.75 1.667-1.666V5c0-.917-.75-1.667-1.667-1.667zm0 3.333l-6.667 4.167-6.666-4.167V5.001L10 9.167l6.667-4.166v1.666z"/></symbol><symbol id="close" viewBox="0 0 32 32"><path d="M15.999 17.866l-6.533 6.533c-.244.244-.556.367-.933.367s-.689-.122-.933-.367c-.244-.244-.367-.556-.367-.933s.122-.689.367-.933L14.133 16 7.6 9.467c-.244-.244-.367-.556-.367-.933s.122-.689.367-.933c.244-.244.556-.367.933-.367s.689.122.933.367l6.533 6.533 6.533-6.533c.244-.244.556-.367.933-.367s.689.122.933.367c.244.244.367.556.367.933s-.122.689-.367.933L17.865 16l6.533 6.533c.244.244.367.556.367.933s-.122.689-.367.933c-.244.244-.556.367-.933.367s-.689-.122-.933-.367l-6.533-6.533z"/></symbol><symbol id="icon-arrow-down" viewBox="0 0 51 32"><path fill="none" stroke-linejoin="round" stroke-linecap="round" d="M2.326 2.665l23.273 26.667L48.872 2.665"/></symbol><symbol id="btn-to-top" viewBox="0 0 22 30"><path d="M11 1L1 9.69M11 1l10 8.69M11 1v28" stroke="currentColor" stroke-width="2" stroke-linecap="round" stroke-linejoin="round"/></symbol><symbol id="icon_people" viewBox="0 0 32 32"><path d="M25.126 11.299zm-8.25 0zm-4.848 14.464zm17.944 0zM12.498 12.421zm-6.625 0zm6.586 8.413a1 1 0 00.833-1.819l-.833 1.818zM2.022 23.971l-.97-.242v.001l.971.24zm7.604 1.828a1 1 0 000-2v2zm14.502-14.571C23.973 13.382 22.407 14.8 21 14.8v2c2.706 0 4.911-2.499 5.122-5.428l-1.995-.144zm-3.127 3.571c-1.407 0-2.975-1.418-3.127-3.571l-1.995.141c.208 2.932 2.417 5.429 5.123 5.429v-2zm-3.128-3.57c-.076-1.067.256-1.912.795-2.487C19.21 8.164 20.017 7.8 21 7.8v-2c-1.493 0-2.843.563-3.791 1.574-.951 1.014-1.443 2.419-1.331 3.996l1.995-.141zm3.128-3.43c1.897 0 3.273 1.411 3.128 3.428l1.995.144c.229-3.176-2.065-5.572-5.122-5.572v2zm-.001 11c-4.336 0-8.808 2.17-9.942 6.721l1.941.483c.829-3.329 4.191-5.205 8.001-5.205v-2zm-9.942 6.722c-.253 1.014.381 2.279 1.703 2.279v-2c.03 0 .074.008.119.033a.254.254 0 01.091.081c.035.052.029.088.028.092l-1.941-.484zm1.703 2.278h16.478v-2H12.761v2zm16.478 0c1.325 0 1.951-1.268 1.704-2.276L29.001 26c-.001-.002-.008-.037.027-.088a.25.25 0 01.092-.081.253.253 0 01.119-.033v2zm1.704-2.274C29.81 20.901 25.327 18.8 21 18.8v2c3.82 0 7.172 1.819 8.001 5.201l1.943-.476zM11.5 12.349c-.119 1.648-1.328 2.701-2.315 2.701v2c2.298 0 4.136-2.145 4.31-4.557l-1.995-.144zm-2.315 2.7c-.988 0-2.198-1.053-2.315-2.699l-1.995.141c.171 2.415 2.013 4.558 4.31 4.558v-2zM6.87 12.35c-.108-1.53.913-2.551 2.315-2.551v-2c-2.556 0-4.501 1.998-4.31 4.692l1.995-.141zm2.315-2.551c1.395 0 2.423 1.052 2.315 2.549l1.995.144c.191-2.649-1.748-4.693-4.31-4.693v2zm4.107 9.216c-1.295-.593-2.689-.807-4.104-.807v2c1.219 0 2.31.184 3.271.625l.833-1.818zm-4.104-.806c-3.513 0-7.199 1.763-8.136 5.521l1.941.484c.632-2.536 3.208-4.004 6.195-4.004v-2zm-8.136 5.522c-.225.907.343 2.069 1.556 2.069v-2c.135 0 .264.075.334.178.062.09.065.178.051.234l-1.941-.481zm1.556 2.068h7.018v-2H2.608v2z"/></symbol><symbol id="icon_no-symbol" viewBox="0 0 32 32"><path fill="var(--color1, #1d2087)" d="M9.542 7.847l14.61 14.61a10.397 10.397 0 00-.8-13.81 10.402 10.402 0 00-13.81-.8zm12.912 16.307L7.844 9.544a10.397 10.397 0 00.8 13.81 10.402 10.402 0 0013.81.8zM6.947 6.95a12.812 12.812 0 019.052-3.749 12.803 12.803 0 0111.826 7.902 12.811 12.811 0 01-2.775 13.95 12.798 12.798 0 01-21.851-9.051 12.8 12.8 0 013.749-9.051z"/></symbol><symbol id="icon_money" viewBox="0 0 32 32"><path fill="none" stroke-width="2" d="M19.879 20c0-1.052-3.039-1.905-6.788-1.905M19.879 20c0 1.052-3.039 1.905-6.788 1.905S6.303 21.053 6.303 20m13.576 0v4.702c0 1.085-3.039 1.965-6.788 1.965s-6.788-.879-6.788-1.965V20m13.576 0c3.708 0 6.788-.94 6.788-1.905V8.571m-13.576 9.524c-3.749 0-6.788.852-6.788 1.905m6.788-1.905c-4.284 0-7.758-.94-7.758-1.905v-4.762m7.758-1.904c-4.284 0-7.758.852-7.758 1.905m0 0c0 1.052 3.473 1.905 7.758 1.905 0 .965 3.154 1.905 6.863 1.905s6.713-.94 6.713-1.905m0-4.763c0-1.052-3.006-1.905-6.713-1.905s-6.713.852-6.713 1.905m13.426 0c0 1.052-3.006 1.905-6.713 1.905s-6.713-.852-6.713-1.905m-.001 0v9.682" stroke="var(--color1, #1d2087)"/></symbol><symbol id="icon_map" viewBox="0 0 32 32"><path d="M16.533 6.206c3.08 0 5.6 2.469 5.6 5.486 0 2.88-2.94 7.543-5.6 10.834-2.66-3.429-5.6-7.954-5.6-10.834 0-3.017 2.52-5.486 5.6-5.486zm0-2.742c-4.62 0-8.4 3.703-8.4 8.229 0 6.171 8.4 15.086 8.4 15.086s8.4-9.051 8.4-15.086c0-4.526-3.78-8.229-8.4-8.229zm0 5.485c-1.54 0-2.8 1.234-2.8 2.743s1.26 2.743 2.8 2.743c1.54 0 2.8-1.234 2.8-2.743s-1.26-2.743-2.8-2.743zm11.2 17.829c0 3.017-5.04 5.486-11.2 5.486s-11.2-2.469-11.2-5.486c0-1.783 1.68-3.291 4.34-4.389l.84 1.234c-1.4.686-2.38 1.509-2.38 2.469 0 1.92 3.78 3.429 8.4 3.429s8.4-1.509 8.4-3.429c0-.96-.98-1.783-2.52-2.469l.84-1.234c2.8 1.097 4.48 2.606 4.48 4.389z"/></symbol><symbol id="icon_calendar" viewBox="0 0 32 32"><path d="M9.333 16.268H12v2.667H9.333v-2.667zm18.667-8v18.667a2.658 2.658 0 01-2.667 2.667H6.666a2.668 2.668 0 01-2.667-2.667V8.268c0-1.467 1.2-2.667 2.667-2.667h1.333V2.934h2.667v2.667h10.667V2.934H24v2.667h1.333A2.67 2.67 0 0128 8.268zM6.667 10.935h18.667V8.268H6.667v2.667zm18.666 16V13.602H6.666v13.333h18.667zm-5.333-8v-2.667h2.667v2.667H20zm-5.333 0v-2.667h2.667v2.667h-2.667zm-5.334 2.667H12v2.667H9.333v-2.667zM20 24.268v-2.667h2.667v2.667H20zm-5.333 0v-2.667h2.667v2.667h-2.667z"/></symbol><symbol id="icon-small_arrow" viewBox="0 0 64 32"><path fill="none" stroke="var(--color1, #1d2087)" stroke-linejoin="round" stroke-linecap="round" stroke-width="8" d="M2.901 2.667l29.091 26.667L61.083 2.667"/></symbol><symbol id="icon-bi_quote" viewBox="0 0 32 32"><path fill="var(--color1, #1d2087)" d="M24 24a2 2 0 002-2v-4.884a2 2 0 00-2-2h-2.776c0-.702.042-1.406.124-2.108a7.018 7.018 0 01.62-1.984c.29-.58.662-1.034 1.118-1.366.454-.372 1.032-.558 1.736-.558V6c-1.158 0-2.17.248-3.04.744a6.649 6.649 0 00-2.17 1.984 9.841 9.841 0 00-1.24 2.916A15.417 15.417 0 0018 15.116V22a2 2 0 002 2h4zm-12 0a2 2 0 002-2v-4.884a2 2 0 00-2-2H9.224c0-.702.042-1.406.124-2.108a7.018 7.018 0 01.62-1.984c.29-.58.662-1.034 1.118-1.366.454-.372 1.032-.558 1.736-.558V6c-1.158 0-2.17.248-3.04.744a6.649 6.649 0 00-2.17 1.984 9.841 9.841 0 00-1.24 2.916A15.417 15.417 0 006 15.116V22a2 2 0 002 2h4z"/></symbol><symbol id="icon-copy_doc" viewBox="0 0 34 32"><path stroke-linejoin="round" stroke-linecap="round" stroke-width="2.133" d="M11.475 5.329v16a2.668 2.668 0 002.667 2.667h10.667a2.668 2.668 0 002.667-2.667V9.652a2.66 2.66 0 00-.803-1.906l-4.42-4.323a2.666 2.666 0 00-1.864-.76h-6.247a2.668 2.668 0 00-2.667 2.667z"/><path stroke-linejoin="round" stroke-linecap="round" stroke-width="2.133" d="M22.137 23.992v2.667a2.67 2.67 0 01-2.667 2.667H8.803a2.668 2.668 0 01-2.667-2.667V11.992a2.668 2.668 0 012.667-2.667h2.667"/><path stroke-linejoin="round" stroke-linecap="round" stroke-width="2.133" d="M12.137 4.667v16a2.67 2.67 0 002.667 2.667h10.667a2.67 2.67 0 002.667-2.667V8.99a2.66 2.66 0 00-.803-1.906l-4.42-4.323a2.666 2.666 0 00-1.864-.76h-6.247a2.668 2.668 0 00-2.667 2.667z"/><path stroke-linejoin="round" stroke-linecap="round" stroke-width="2.133" d="M22.8 23.329v2.667a2.67 2.67 0 01-2.667 2.667H9.466a2.668 2.668 0 01-2.667-2.667V11.329a2.668 2.668 0 012.667-2.667h2.667"/></symbol><symbol id="icon-checkmark" viewBox="0 0 32 32"><path d="M27 4L12 19l-7-7-5 5 12 12L32 9z"/></symbol><symbol id="icon-youtube" viewBox="0 0 32 32"><path fill="var(--color1, #f7f7fc)" d="M13.333 20l6.92-4-6.92-4v8zM28.746 9.56c.173.627.293 1.467.373 2.533.093 1.067.133 1.987.133 2.787l.08 1.12c0 2.92-.213 5.067-.587 6.44-.333 1.2-1.107 1.973-2.307 2.307-.627.173-1.773.293-3.533.373-1.733.093-3.32.133-4.787.133l-2.12.08c-5.587 0-9.067-.213-10.44-.587-1.2-.333-1.973-1.107-2.307-2.307-.173-.627-.293-1.467-.373-2.533a32.213 32.213 0 01-.133-2.787l-.08-1.12c0-2.92.213-5.067.587-6.44.333-1.2 1.107-1.973 2.307-2.307.627-.173 1.773-.293 3.533-.373a89.186 89.186 0 014.787-.133l2.12-.08c5.587 0 9.067.213 10.44.587 1.2.333 1.973 1.107 2.307 2.307z"/></symbol></defs></svg>