<svg aria-hidden="true" style="position:absolute;width:0;height:0" xmlns="http://www.w3.org/2000/svg" overflow="hidden"><defs><symbol id="close" viewBox="0 0 32 32"><path d="M15.999 17.866l-6.533 6.533c-.244.244-.556.367-.933.367s-.689-.122-.933-.367c-.244-.244-.367-.556-.367-.933s.122-.689.367-.933L14.133 16 7.6 9.467c-.244-.244-.367-.556-.367-.933s.122-.689.367-.933c.244-.244.556-.367.933-.367s.689.122.933.367l6.533 6.533 6.533-6.533c.244-.244.556-.367.933-.367s.689.122.933.367c.244.244.367.556.367.933s-.122.689-.367.933L17.865 16l6.533 6.533c.244.244.367.556.367.933s-.122.689-.367.933c-.244.244-.556.367-.933.367s-.689-.122-.933-.367l-6.533-6.533z"/></symbol></defs></svg>