<svg aria-hidden="true" style="position: absolute; width: 0; height: 0; overflow: hidden;" version="1.1" xmlns="http://www.w3.org/2000/svg" xmlns:xlink="http://www.w3.org/1999/xlink">
<defs>

<symbol id="close" viewBox="0 0 32 32">
<path d="M15.999 17.866l-6.533 6.533c-0.244 0.244-0.556 0.367-0.933 0.367s-0.689-0.122-0.933-0.367c-0.244-0.244-0.367-0.556-0.367-0.933s0.122-0.689 0.367-0.933l6.533-6.533-6.533-6.533c-0.244-0.244-0.367-0.556-0.367-0.933s0.122-0.689 0.367-0.933c0.244-0.244 0.556-0.367 0.933-0.367s0.689 0.122 0.933 0.367l6.533 6.533 6.533-6.533c0.244-0.244 0.556-0.367 0.933-0.367s0.689 0.122 0.933 0.367c0.244 0.244 0.367 0.556 0.367 0.933s-0.122 0.689-0.367 0.933l-6.533 6.533 6.533 6.533c0.244 0.244 0.367 0.556 0.367 0.933s-0.122 0.689-0.367 0.933c-0.244 0.244-0.556 0.367-0.933 0.367s-0.689-0.122-0.933-0.367l-6.533-6.533z"></path>
</symbol>

</defs>
</svg>
