<svg aria-hidden="true" style="position: absolute; width: 0; height: 0; overflow: hidden;" version="1.1" xmlns="http://www.w3.org/2000/svg" xmlns:xlink="http://www.w3.org/1999/xlink">
<defs>
<symbol id="arrow-right" viewBox="0 0 32 32">
<path d="M5.333 15c-0.552 0-1 0.448-1 1s0.448 1 1 1v-2zM27.374 16.707c0.391-0.391 0.391-1.024 0-1.414l-6.364-6.364c-0.39-0.391-1.024-0.391-1.414 0s-0.391 1.024 0 1.414l5.657 5.657-5.657 5.657c-0.391 0.39-0.391 1.024 0 1.414s1.024 0.391 1.414 0l6.364-6.364zM5.333 17h21.333v-2h-21.333v2z"></path>
</symbol>
<symbol id="arrow-left" viewBox="0 0 32 32">
<path d="M26.667 17c0.552 0 1-0.448 1-1s-0.448-1-1-1v2zM4.626 15.293c-0.391 0.391-0.391 1.024 0 1.414l6.364 6.364c0.391 0.391 1.024 0.391 1.414 0s0.39-1.024 0-1.414l-5.657-5.657 5.657-5.657c0.39-0.39 0.39-1.024 0-1.414s-1.024-0.391-1.414 0l-6.364 6.364zM26.667 15h-21.333v2h21.333v-2z"></path>
</symbol>
<symbol id="icon-prime_copy" viewBox="0 0 32 32">
<path d="M26.040 10.667l-7.373-7.373c-0.187-0.188-0.442-0.293-0.707-0.293h-3.293c-0.972 0-1.905 0.386-2.593 1.074s-1.074 1.62-1.074 2.593v1.667h-1.667c-0.972 0-1.905 0.386-2.593 1.074s-1.074 1.62-1.074 2.593v13.333c0 0.972 0.386 1.905 1.074 2.593s1.62 1.074 2.593 1.074h9.333c0.972 0 1.905-0.386 2.593-1.074s1.074-1.62 1.074-2.593v-1.667h0.333c0.972 0 1.905-0.386 2.593-1.074s1.074-1.62 1.074-2.593v-8.667c-0.011-0.251-0.115-0.489-0.293-0.667zM19 6.413l3.92 3.92h-3.92v-3.92zM20.333 25.333c0 0.442-0.176 0.866-0.488 1.179s-0.737 0.488-1.179 0.488h-9.333c-0.442 0-0.866-0.176-1.178-0.488s-0.488-0.737-0.488-1.179v-13.333c0-0.442 0.176-0.866 0.488-1.178s0.736-0.488 1.178-0.488h1.667v9.667c0 0.972 0.386 1.905 1.074 2.593s1.62 1.074 2.593 1.074h5.667v1.667zM22.667 21.667h-8c-0.442 0-0.866-0.176-1.179-0.488s-0.488-0.737-0.488-1.179v-13.333c0-0.442 0.176-0.866 0.488-1.178s0.737-0.488 1.179-0.488h2.333v6.333c0.003 0.264 0.11 0.517 0.297 0.703s0.439 0.293 0.703 0.297h6.333v7.667c0 0.442-0.176 0.866-0.488 1.179s-0.737 0.488-1.179 0.488z"></path>
</symbol>
<symbol id="cross-icon" viewBox="0 0 32 32">
<path d="M16 17.866l-6.533 6.533c-0.244 0.244-0.556 0.367-0.933 0.367s-0.689-0.122-0.933-0.367c-0.244-0.244-0.367-0.556-0.367-0.933s0.122-0.689 0.367-0.933l6.533-6.533-6.533-6.533c-0.244-0.244-0.367-0.556-0.367-0.933s0.122-0.689 0.367-0.933c0.244-0.244 0.556-0.367 0.933-0.367s0.689 0.122 0.933 0.367l6.533 6.533 6.533-6.533c0.244-0.244 0.556-0.367 0.933-0.367s0.689 0.122 0.933 0.367c0.244 0.244 0.367 0.556 0.367 0.933s-0.122 0.689-0.367 0.933l-6.533 6.533 6.533 6.533c0.244 0.244 0.367 0.556 0.367 0.933s-0.122 0.689-0.367 0.933c-0.244 0.244-0.556 0.367-0.933 0.367s-0.689-0.122-0.933-0.367l-6.533-6.533z"></path>
</symbol>
<symbol id="minus-icon" viewBox="0 0 32 32">
<path d="M24 17.331h-16c-0.354 0-0.693-0.14-0.943-0.39s-0.391-0.589-0.391-0.943c0-0.354 0.14-0.693 0.391-0.943s0.589-0.39 0.943-0.39h16c0.354 0 0.693 0.14 0.943 0.39s0.391 0.589 0.391 0.943c0 0.354-0.14 0.693-0.391 0.943s-0.589 0.39-0.943 0.39z"></path>
</symbol>
<symbol id="plus-icon" viewBox="0 0 32 32">
<path d="M24 17.331h-6.667v6.667c0 0.354-0.14 0.693-0.391 0.943s-0.589 0.39-0.943 0.39-0.693-0.14-0.943-0.39c-0.25-0.25-0.39-0.589-0.39-0.943v-6.667h-6.667c-0.354 0-0.693-0.14-0.943-0.39s-0.391-0.589-0.391-0.943c0-0.354 0.14-0.693 0.391-0.943s0.589-0.39 0.943-0.39h6.667v-6.667c0-0.354 0.14-0.693 0.39-0.943s0.589-0.391 0.943-0.391c0.354 0 0.693 0.14 0.943 0.391s0.391 0.589 0.391 0.943v6.667h6.667c0.354 0 0.693 0.14 0.943 0.39s0.391 0.589 0.391 0.943c0 0.354-0.14 0.693-0.391 0.943s-0.589 0.39-0.943 0.39z"></path>
</symbol>
<symbol id="facebook" viewBox="0 0 20 20">
<path d="M18.3346 9.99935C18.3346 5.39935 14.6013 1.66602 10.0013 1.66602C5.4013 1.66602 1.66797 5.39935 1.66797 9.99935C1.66797 14.0327 4.53464 17.391 8.33464 18.166V12.4993H6.66797V9.99935H8.33464V7.91602C8.33464 6.30768 9.64297 4.99935 11.2513 4.99935H13.3346V7.49935H11.668C11.2096 7.49935 10.8346 7.87435 10.8346 8.33268V9.99935H13.3346V12.4993H10.8346V18.291C15.043 17.8743 18.3346 14.3243 18.3346 9.99935Z"/>
</symbol>
<symbol id="telegram" viewBox="0 0 20 20">
<path d="M10.0013 1.66602C5.4013 1.66602 1.66797 5.39935 1.66797 9.99935C1.66797 14.5993 5.4013 18.3327 10.0013 18.3327C14.6013 18.3327 18.3346 14.5993 18.3346 9.99935C18.3346 5.39935 14.6013 1.66602 10.0013 1.66602ZM13.868 7.33268C13.743 8.64935 13.2013 11.8493 12.9263 13.3243C12.8096 13.9493 12.5763 14.1577 12.3596 14.1827C11.8763 14.2243 11.5096 13.866 11.043 13.5577C10.3096 13.0744 9.89297 12.7744 9.18464 12.3077C8.35964 11.766 8.89297 11.466 9.36797 10.9827C9.49297 10.8577 11.6263 8.91602 11.668 8.74102C11.6738 8.71451 11.673 8.68699 11.6657 8.66085C11.6585 8.63471 11.6449 8.61074 11.6263 8.59102C11.5763 8.54935 11.5096 8.56602 11.4513 8.57435C11.3763 8.59102 10.2096 9.36602 7.93464 10.8993C7.6013 11.1243 7.3013 11.241 7.03464 11.2327C6.73463 11.2243 6.16797 11.066 5.74297 10.9243C5.21797 10.7577 4.80964 10.666 4.84297 10.3743C4.85964 10.2243 5.06797 10.0743 5.45964 9.91602C7.89297 8.85768 9.50964 8.15768 10.318 7.82435C12.6346 6.85768 13.1096 6.69102 13.4263 6.69102C13.493 6.69102 13.6513 6.70768 13.7513 6.79102C13.8346 6.85768 13.8596 6.94935 13.868 7.01602C13.8596 7.06602 13.8763 7.21602 13.868 7.33268Z"/>
</symbol>
<symbol id="instagram" viewBox="0 0 20 20">
<path d="M10.8545 1.66602C11.792 1.66852 12.2679 1.67352 12.6787 1.68518L12.8404 1.69102C13.027 1.69768 13.2112 1.70602 13.4337 1.71602C14.3204 1.75768 14.9254 1.89768 15.4562 2.10352C16.0062 2.31518 16.4695 2.60185 16.9329 3.06435C17.3566 3.48093 17.6845 3.98484 17.8937 4.54102C18.0995 5.07185 18.2395 5.67685 18.2812 6.56435C18.2912 6.78602 18.2995 6.97018 18.3062 7.15768L18.3112 7.31935C18.3237 7.72935 18.3287 8.20518 18.3304 9.14268L18.3312 9.76435V10.856C18.3333 11.4639 18.3269 12.0717 18.312 12.6793L18.307 12.841C18.3004 13.0285 18.292 13.2127 18.282 13.4343C18.2404 14.3218 18.0987 14.926 17.8937 15.4577C17.6851 16.0142 17.3571 16.5182 16.9329 16.9344C16.5162 17.3579 16.0123 17.6858 15.4562 17.8952C14.9254 18.101 14.3204 18.241 13.4337 18.2827C13.236 18.292 13.0382 18.3003 12.8404 18.3077L12.6787 18.3127C12.2679 18.3244 11.792 18.3302 10.8545 18.3319L10.2329 18.3327H9.14204C8.53393 18.3348 7.92581 18.3284 7.31788 18.3135L7.15621 18.3085C6.95839 18.301 6.7606 18.2924 6.56288 18.2827C5.67621 18.241 5.07121 18.101 4.53954 17.8952C3.98343 17.6863 3.47972 17.3584 3.06371 16.9344C2.63958 16.5179 2.3114 16.014 2.10204 15.4577C1.89621 14.9268 1.75621 14.3218 1.71454 13.4343C1.70526 13.2366 1.69693 13.0388 1.68954 12.841L1.68538 12.6793C1.67002 12.0717 1.66307 11.4639 1.66454 10.856V9.14268C1.66222 8.53485 1.66833 7.92701 1.68288 7.31935L1.68871 7.15768C1.69538 6.97018 1.70371 6.78602 1.71371 6.56435C1.75538 5.67685 1.89538 5.07268 2.10121 4.54102C2.31047 3.98427 2.63931 3.4802 3.06454 3.06435C3.48045 2.64058 3.98383 2.31267 4.53954 2.10352C5.07121 1.89768 5.67538 1.75768 6.56288 1.71602C6.78454 1.70602 6.96954 1.69768 7.15621 1.69102L7.31788 1.68602C7.92554 1.67121 8.53337 1.66482 9.14121 1.66685L10.8545 1.66602ZM9.99788 5.83268C8.89281 5.83268 7.833 6.27167 7.0516 7.05307C6.2702 7.83447 5.83121 8.89428 5.83121 9.99935C5.83121 11.1044 6.2702 12.1642 7.0516 12.9456C7.833 13.727 8.89281 14.166 9.99788 14.166C11.1029 14.166 12.1628 13.727 12.9442 12.9456C13.7256 12.1642 14.1645 11.1044 14.1645 9.99935C14.1645 8.89428 13.7256 7.83447 12.9442 7.05307C12.1628 6.27167 11.1029 5.83268 9.99788 5.83268ZM9.99788 7.49935C10.3262 7.49929 10.6513 7.56391 10.9546 7.68949C11.258 7.81508 11.5336 7.99918 11.7658 8.23129C11.998 8.4634 12.1821 8.73896 12.3078 9.04226C12.4335 9.34555 12.4982 9.67063 12.4983 9.99893C12.4983 10.3272 12.4337 10.6523 12.3082 10.9557C12.1826 11.259 11.9985 11.5346 11.7664 11.7668C11.5342 11.999 11.2587 12.1832 10.9554 12.3089C10.6521 12.4346 10.327 12.4993 9.99871 12.4993C9.33567 12.4993 8.69978 12.236 8.23094 11.7671C7.7621 11.2983 7.49871 10.6624 7.49871 9.99935C7.49871 9.33631 7.7621 8.70042 8.23094 8.23158C8.69978 7.76274 9.33567 7.49935 9.99871 7.49935M14.3737 4.58268C14.0974 4.58268 13.8325 4.69243 13.6371 4.88778C13.4418 5.08313 13.332 5.34808 13.332 5.62435C13.332 5.90062 13.4418 6.16557 13.6371 6.36092C13.8325 6.55627 14.0974 6.66602 14.3737 6.66602C14.65 6.66602 14.9149 6.55627 15.1103 6.36092C15.3056 6.16557 15.4154 5.90062 15.4154 5.62435C15.4154 5.34808 15.3056 5.08313 15.1103 4.88778C14.9149 4.69243 14.65 4.58268 14.3737 4.58268Z"/>
</symbol> 
<symbol id="twitter" viewBox="0 0 18 18">
<path d="M8.20212 0.700321C5.59796 0.970505 3.31606 2.38652 1.92934 4.59355C-0.0368073 7.72181 0.334286 11.8755 2.82127 14.5805C4.20473 16.0844 5.91697 16.9796 7.97426 17.2726C8.36163 17.3279 9.64093 17.3247 10.0413 17.2693C12.0661 16.9894 13.7783 16.0975 15.1585 14.6001C16.2946 13.3696 17.0205 11.7941 17.2744 10.0232C17.3297 9.63912 17.3297 8.35657 17.2744 7.97246C17.0823 6.61829 16.6526 5.4692 15.9398 4.39498C15.6403 3.93925 15.3375 3.56816 14.9144 3.14173C13.6155 1.82662 12.0075 1.01608 10.1552 0.74264C9.75486 0.684046 8.59926 0.658005 8.20212 0.700321ZM8.29002 5.88261C8.96384 6.86569 9.52374 7.66972 9.5335 7.67298C9.54327 7.67623 10.2431 6.8722 11.0927 5.88912L12.6325 4.09876L13.0491 4.08899C13.2933 4.08574 13.4593 4.09225 13.4528 4.11178C13.4495 4.12806 13.0524 4.59355 12.5771 5.14368C12.1019 5.69707 11.3076 6.62155 10.8128 7.19772L9.91111 8.24264L11.6396 10.7622C12.5901 12.1456 13.4625 13.4152 13.5797 13.5779L13.7881 13.8807H12.359H10.93L9.63442 11.9926C8.92153 10.9542 8.32908 10.1046 8.31931 10.1079C8.30955 10.1079 7.57387 10.9542 6.68845 11.9861L5.07387 13.8644L4.64418 13.8742L4.21449 13.8839L6.08298 11.7094L7.95147 9.53821L7.84731 9.38847C7.73012 9.22897 4.36098 4.32011 4.26332 4.17037L4.20798 4.08248L5.63377 4.08899L7.0628 4.09876L8.29002 5.88261Z" fill="#1D2087"/>
<path d="M8.34766 9.00438L11.3359 13.2785L11.974 13.2882C12.3255 13.2915 12.6152 13.285 12.6152 13.272C12.6152 13.2557 11.2773 11.3351 9.64323 8.99787L6.67122 4.74982L6.01367 4.74006L5.35938 4.73354L8.34766 9.00438Z" fill="#1D2087"/>
</symbol> 
<symbol id="linkedin" viewBox="0 0 18 18">
<path fill-rule="evenodd" clip-rule="evenodd" d="M2.75 0.25C2.08696 0.25 1.45107 0.513392 0.982233 0.982233C0.513392 1.45107 0.25 2.08696 0.25 2.75V15.25C0.25 15.913 0.513392 16.5489 0.982233 17.0178C1.45107 17.4866 2.08696 17.75 2.75 17.75H15.25C15.913 17.75 16.5489 17.4866 17.0178 17.0178C17.4866 16.5489 17.75 15.913 17.75 15.25V2.75C17.75 2.08696 17.4866 1.45107 17.0178 0.982233C16.5489 0.513392 15.913 0.25 15.25 0.25H2.75ZM4.1275 5.62125C4.52367 5.62125 4.90361 5.46387 5.18374 5.18374C5.46387 4.90361 5.62125 4.52367 5.62125 4.1275C5.62125 3.73133 5.46387 3.35139 5.18374 3.07126C4.90361 2.79113 4.52367 2.63375 4.1275 2.63375C3.73133 2.63375 3.35139 2.79113 3.07126 3.07126C2.79113 3.35139 2.63375 3.73133 2.63375 4.1275C2.63375 4.52367 2.79113 4.90361 3.07126 5.18374C3.35139 5.46387 3.73133 5.62125 4.1275 5.62125ZM5.3775 15.0162V6.7925H2.8775V15.0162H5.3775ZM7.0375 6.7925H9.5375V7.89375C9.90625 7.31625 10.7163 6.53875 12.2225 6.53875C14.02 6.53875 14.9963 7.73 14.9963 9.99625C14.9963 10.105 15.0063 10.6012 15.0063 10.6012V15.015H12.5063V10.6025C12.5063 9.99625 12.3787 8.805 11.0312 8.805C9.6825 8.805 9.56875 10.3025 9.5375 11.2825V15.015H7.0375V6.7925Z" fill="#1D2087"/>
</symbol>
<symbol id="phone" viewBox="0 0 20 20">
<path d="M5.51667 8.99167C6.71667 11.35 8.65 13.275 11.0083 14.4833L12.8417 12.65C13.0667 12.425 13.4 12.35 13.6917 12.45C14.625 12.7583 15.6333 12.925 16.6667 12.925C17.125 12.925 17.5 13.3 17.5 13.7583V16.6667C17.5 17.125 17.125 17.5 16.6667 17.5C8.84167 17.5 2.5 11.1583 2.5 3.33333C2.5 2.875 2.875 2.5 3.33333 2.5H6.25C6.70833 2.5 7.08333 2.875 7.08333 3.33333C7.08333 4.375 7.25 5.375 7.55833 6.30833C7.65 6.6 7.58333 6.925 7.35 7.15833L5.51667 8.99167Z"/>
</symbol>
<symbol id="mail" viewBox="0 0 20 20">
<path d="M16.668 3.33398H3.33464C2.41797 3.33398 1.6763 4.08398 1.6763 5.00065L1.66797 15.0007C1.66797 15.9173 2.41797 16.6673 3.33464 16.6673H16.668C17.5846 16.6673 18.3346 15.9173 18.3346 15.0007V5.00065C18.3346 4.08398 17.5846 3.33398 16.668 3.33398ZM16.668 6.66732L10.0013 10.834L3.33464 6.66732V5.00065L10.0013 9.16732L16.668 5.00065V6.66732Z"/>
</symbol> 
<symbol id="close" viewBox="0 0 32 32">
<path d="M15.999 17.866l-6.533 6.533c-0.244 0.244-0.556 0.367-0.933 0.367s-0.689-0.122-0.933-0.367c-0.244-0.244-0.367-0.556-0.367-0.933s0.122-0.689 0.367-0.933l6.533-6.533-6.533-6.533c-0.244-0.244-0.367-0.556-0.367-0.933s0.122-0.689 0.367-0.933c0.244-0.244 0.556-0.367 0.933-0.367s0.689 0.122 0.933 0.367l6.533 6.533 6.533-6.533c0.244-0.244 0.556-0.367 0.933-0.367s0.689 0.122 0.933 0.367c0.244 0.244 0.367 0.556 0.367 0.933s-0.122 0.689-0.367 0.933l-6.533 6.533 6.533 6.533c0.244 0.244 0.367 0.556 0.367 0.933s-0.122 0.689-0.367 0.933c-0.244 0.244-0.556 0.367-0.933 0.367s-0.689-0.122-0.933-0.367l-6.533-6.533z"></path>
</symbol>
<symbol id="icon-arrow-down" viewBox="0 0 51 32">
<path fill="none" stroke-linejoin="round" stroke-linecap="round" stroke-miterlimit="4" d="M2.326 2.665l23.273 26.667 23.273-26.667"></path>
</symbol>
<symbol id="btn-to-top" viewBox="0 0 22 30">
<path d="M11 1L1 9.68966M11 1L21 9.68966M11 1V29" stroke="currentColor" stroke-width="2" stroke-linecap="round" stroke-linejoin="round"></path>
</symbol>
<symbol id="icon_people" viewBox="0 0 32 32">
<path d="M25.126 11.299v0zM16.876 11.299v0zM12.028 25.763v0zM29.972 25.763v0zM12.498 12.421v0zM5.873 12.421v0zM12.459 20.834c0.502 0.23 1.096 0.009 1.326-0.493s0.009-1.096-0.493-1.326l-0.833 1.818zM2.022 23.971l-0.97-0.242-0 0.001 0.971 0.24zM9.626 25.799c0.552 0 1-0.448 1-1s-0.448-1-1-1v2zM24.128 11.228c-0.155 2.154-1.721 3.572-3.128 3.572v2c2.706 0 4.911-2.499 5.122-5.428l-1.995-0.144zM21.001 14.799c-1.407 0-2.975-1.418-3.127-3.571l-1.995 0.141c0.208 2.932 2.417 5.429 5.123 5.429v-2zM17.873 11.229c-0.076-1.067 0.256-1.912 0.795-2.487 0.542-0.578 1.349-0.942 2.332-0.942v-2c-1.493 0-2.843 0.563-3.791 1.574-0.951 1.014-1.443 2.419-1.331 3.996l1.995-0.141zM21.001 7.799c1.897 0 3.273 1.411 3.128 3.428l1.995 0.144c0.229-3.176-2.065-5.572-5.122-5.572v2zM21 18.799c-4.336 0-8.808 2.17-9.942 6.721l1.941 0.483c0.829-3.329 4.191-5.205 8.001-5.205v-2zM11.058 25.521c-0.253 1.014 0.381 2.279 1.703 2.279v-2c0.030 0 0.074 0.008 0.119 0.033 0.043 0.023 0.073 0.054 0.091 0.081 0.035 0.052 0.029 0.088 0.028 0.092l-1.941-0.484zM12.761 27.799h16.478v-2h-16.478v2zM29.239 27.799c1.325 0 1.951-1.268 1.704-2.276l-1.942 0.477c-0.001-0.002-0.008-0.037 0.027-0.088 0.018-0.027 0.048-0.058 0.092-0.081 0.045-0.025 0.089-0.033 0.119-0.033v2zM30.943 25.525c-1.133-4.624-5.616-6.725-9.943-6.725v2c3.82 0 7.172 1.819 8.001 5.201l1.943-0.476zM11.5 12.349c-0.119 1.648-1.328 2.701-2.315 2.701v2c2.298 0 4.136-2.145 4.31-4.557l-1.995-0.144zM9.185 15.049c-0.988 0-2.198-1.053-2.315-2.699l-1.995 0.141c0.171 2.415 2.013 4.558 4.31 4.558v-2zM6.87 12.35c-0.108-1.53 0.913-2.551 2.315-2.551v-2c-2.556 0-4.501 1.998-4.31 4.692l1.995-0.141zM9.185 9.799c1.395 0 2.423 1.052 2.315 2.549l1.995 0.144c0.191-2.649-1.748-4.693-4.31-4.693v2zM13.292 19.015c-1.295-0.593-2.689-0.807-4.104-0.807v2c1.219 0 2.31 0.184 3.271 0.625l0.833-1.818zM9.188 18.209c-3.513 0-7.199 1.763-8.136 5.521l1.941 0.484c0.632-2.536 3.208-4.004 6.195-4.004v-2zM1.052 23.731c-0.225 0.907 0.343 2.069 1.556 2.069v-2c0.135 0 0.264 0.075 0.334 0.178 0.062 0.090 0.065 0.178 0.051 0.234l-1.941-0.481zM2.608 25.799h7.018v-2h-7.018v2z"></path>
</symbol>
<symbol id="icon_no-symbol" viewBox="0 0 32 32">
<path fill="none" style="fill: var(--color1, #1d2087)" d="M9.542 7.847l14.61 14.61c1.583-1.999 2.377-4.511 2.229-7.057s-1.225-4.95-3.029-6.753-4.207-2.881-6.753-3.029c-2.546-0.147-5.058 0.646-7.057 2.229zM22.454 24.154l-14.61-14.61c-1.583 1.999-2.377 4.511-2.229 7.057s1.225 4.949 3.029 6.753 4.207 2.881 6.753 3.029c2.546 0.147 5.058-0.646 7.057-2.229zM6.947 6.95c1.189-1.189 2.6-2.131 4.153-2.775s3.218-0.974 4.899-0.974c1.681 0 3.345 0.331 4.898 0.974s2.964 1.586 4.153 2.775c1.189 1.189 2.131 2.6 2.775 4.153s0.974 3.217 0.974 4.898c0 1.681-0.331 3.345-0.974 4.899s-1.586 2.964-2.775 4.153c-2.401 2.401-5.656 3.749-9.051 3.749s-6.651-1.349-9.051-3.749-3.749-5.656-3.749-9.051c0-3.395 1.349-6.651 3.749-9.051z"></path>
</symbol>
<symbol id="icon_money" viewBox="0 0 32 32">
<path fill="none" style="stroke: var(--color1, #1d2087)" stroke-linejoin="miter" stroke-linecap="butt" stroke-miterlimit="4" stroke-width="2" d="M19.879 20c0-1.052-3.039-1.905-6.788-1.905M19.879 20c0 1.052-3.039 1.905-6.788 1.905s-6.788-0.852-6.788-1.905M19.879 20v4.702c0 1.085-3.039 1.965-6.788 1.965s-6.788-0.879-6.788-1.965v-4.702M19.879 20c3.708 0 6.788-0.94 6.788-1.905v-9.524M13.091 18.095c-3.749 0-6.788 0.852-6.788 1.905M13.091 18.095c-4.284 0-7.758-0.94-7.758-1.905v-4.762M13.091 9.524c-4.284 0-7.758 0.852-7.758 1.905M5.333 11.429c0 1.052 3.473 1.905 7.758 1.905 0 0.965 3.154 1.905 6.863 1.905s6.713-0.94 6.713-1.905M26.667 8.571c0-1.052-3.006-1.905-6.713-1.905s-6.713 0.852-6.713 1.905M26.667 8.571c0 1.052-3.006 1.905-6.713 1.905s-6.713-0.852-6.713-1.905M13.24 8.571v9.682"></path>
</symbol>
<symbol id="icon_map" viewBox="0 0 32 32">
<path d="M16.533 6.206c3.080 0 5.6 2.469 5.6 5.486 0 2.88-2.94 7.543-5.6 10.834-2.66-3.429-5.6-7.954-5.6-10.834 0-3.017 2.52-5.486 5.6-5.486zM16.533 3.464c-4.62 0-8.4 3.703-8.4 8.229 0 6.171 8.4 15.086 8.4 15.086s8.4-9.051 8.4-15.086c0-4.526-3.78-8.229-8.4-8.229zM16.533 8.949c-1.54 0-2.8 1.234-2.8 2.743s1.26 2.743 2.8 2.743c1.54 0 2.8-1.234 2.8-2.743s-1.26-2.743-2.8-2.743zM27.733 26.778c0 3.017-5.040 5.486-11.2 5.486s-11.2-2.469-11.2-5.486c0-1.783 1.68-3.291 4.34-4.389l0.84 1.234c-1.4 0.686-2.38 1.509-2.38 2.469 0 1.92 3.78 3.429 8.4 3.429s8.4-1.509 8.4-3.429c0-0.96-0.98-1.783-2.52-2.469l0.84-1.234c2.8 1.097 4.48 2.606 4.48 4.389z"></path>
</symbol>
<symbol id="icon_calendar" viewBox="0 0 32 32">
<path d="M9.333 16.268h2.667v2.667h-2.667v-2.667zM28 8.268v18.667c0 1.48-1.187 2.667-2.667 2.667h-18.667c-0.707 0-1.386-0.281-1.886-0.781s-0.781-1.178-0.781-1.886v-18.667c0-1.467 1.2-2.667 2.667-2.667h1.333v-2.667h2.667v2.667h10.667v-2.667h2.667v2.667h1.333c0.707 0 1.385 0.281 1.886 0.781s0.781 1.178 0.781 1.886zM6.667 10.935h18.667v-2.667h-18.667v2.667zM25.333 26.935v-13.333h-18.667v13.333h18.667zM20 18.935v-2.667h2.667v2.667h-2.667zM14.667 18.935v-2.667h2.667v2.667h-2.667zM9.333 21.602h2.667v2.667h-2.667v-2.667zM20 24.268v-2.667h2.667v2.667h-2.667zM14.667 24.268v-2.667h2.667v2.667h-2.667z"></path>
</symbol>
<symbol id="icon-small_arrow" viewBox="0 0 64 32">
<path fill="none" stroke="#1d2087" style="stroke: var(--color1, #1d2087)" stroke-linejoin="round" stroke-linecap="round" stroke-miterlimit="4" stroke-width="8" d="M2.901 2.667l29.091 26.667 29.091-26.667"></path>
</symbol>
<symbol id="icon-bi_quote" viewBox="0 0 32 32">
<path fill="none" style="fill: var(--color1, #1d2087)" d="M24 24c0.53 0 1.039-0.211 1.414-0.586s0.586-0.884 0.586-1.414v-4.884c0-0.53-0.211-1.039-0.586-1.414s-0.884-0.586-1.414-0.586h-2.776c0-0.702 0.042-1.406 0.124-2.108 0.124-0.744 0.332-1.406 0.62-1.984 0.29-0.58 0.662-1.034 1.118-1.366 0.454-0.372 1.032-0.558 1.736-0.558v-3.1c-1.158 0-2.17 0.248-3.040 0.744-0.862 0.491-1.604 1.169-2.17 1.984-0.568 0.899-0.987 1.883-1.24 2.916-0.255 1.14-0.38 2.304-0.372 3.472v6.884c0 0.53 0.211 1.039 0.586 1.414s0.884 0.586 1.414 0.586h4zM12 24c0.53 0 1.039-0.211 1.414-0.586s0.586-0.884 0.586-1.414v-4.884c0-0.53-0.211-1.039-0.586-1.414s-0.884-0.586-1.414-0.586h-2.776c0-0.702 0.042-1.406 0.124-2.108 0.124-0.744 0.332-1.406 0.62-1.984 0.29-0.58 0.662-1.034 1.118-1.366 0.454-0.372 1.032-0.558 1.736-0.558v-3.1c-1.158 0-2.17 0.248-3.040 0.744-0.862 0.491-1.604 1.169-2.17 1.984-0.568 0.899-0.987 1.883-1.24 2.916-0.255 1.14-0.38 2.304-0.372 3.472v6.884c0 0.53 0.211 1.039 0.586 1.414s0.884 0.586 1.414 0.586h4z"></path>
</symbol>
<symbol id="icon-copy_doc" viewBox="0 0 21 20" fill="none">
<path d="M7.16406 3.33073V13.3307C7.16406 13.7728 7.33966 14.1967 7.65222 14.5092C7.96478 14.8218 8.3887 14.9974 8.83073 14.9974H15.4974C15.9394 14.9974 16.3633 14.8218 16.6759 14.5092C16.9885 14.1967 17.1641 13.7728 17.1641 13.3307V6.0324C17.164 5.81036 17.1196 5.59057 17.0335 5.38593C16.9473 5.18129 16.8212 4.99593 16.6624 4.84073L13.8999 2.13906C13.5885 1.83461 13.1704 1.66412 12.7349 1.66406H8.83073C8.3887 1.66406 7.96478 1.83966 7.65222 2.15222C7.33966 2.46478 7.16406 2.8887 7.16406 3.33073Z" stroke-linecap="round" stroke-linejoin="round"/>
<path d="M13.832 14.9948V16.6615C13.832 17.1035 13.6564 17.5274 13.3439 17.84C13.0313 18.1525 12.6074 18.3281 12.1654 18.3281H5.4987C5.05667 18.3281 4.63275 18.1525 4.32019 17.84C4.00763 17.5274 3.83203 17.1035 3.83203 16.6615V7.49479C3.83203 7.05276 4.00763 6.62884 4.32019 6.31628C4.63275 6.00372 5.05667 5.82813 5.4987 5.82812H7.16536" stroke-linecap="round" stroke-linejoin="round"/>
<path d="M7.58203 2.91667V12.9167C7.58203 13.3587 7.75763 13.7826 8.07019 14.0952C8.38275 14.4077 8.80667 14.5833 9.2487 14.5833H15.9154C16.3574 14.5833 16.7813 14.4077 17.0939 14.0952C17.4064 13.7826 17.582 13.3587 17.582 12.9167V5.61833C17.582 5.3963 17.5376 5.17651 17.4515 4.97187C17.3653 4.76723 17.2391 4.58187 17.0804 4.42667L14.3179 1.725C14.0065 1.42055 13.5883 1.25005 13.1529 1.25H9.2487C8.80667 1.25 8.38275 1.42559 8.07019 1.73816C7.75763 2.05072 7.58203 2.47464 7.58203 2.91667Z" stroke-linecap="round" stroke-linejoin="round"/>
<path d="M14.25 14.5807V16.2474C14.25 16.6894 14.0744 17.1133 13.7618 17.4259C13.4493 17.7385 13.0254 17.9141 12.5833 17.9141H5.91667C5.47464 17.9141 5.05072 17.7385 4.73816 17.4259C4.42559 17.1133 4.25 16.6894 4.25 16.2474V7.08073C4.25 6.6387 4.42559 6.21478 4.73816 5.90222C5.05072 5.58966 5.47464 5.41406 5.91667 5.41406H7.58333" stroke-linecap="round" stroke-linejoin="round"/>
</symbol>
<symbol id="icon-checkmark" viewBox="0 0 32 32">
<path d="M27 4l-15 15-7-7-5 5 12 12 20-20z"></path>
</symbol>
<symbol id="icon_PayU" viewBox="0 0 88 32">
<path d="M53.647 11.911c-0.437 0-0.728-0.298-0.728-0.744v-3.274h-0.291c-1.674 0-2.256 0.298-2.256 1.86v9.6c0 0.595-0.146 1.116-0.364 1.488-0.437 0.744-1.383 1.042-2.766 1.042-1.456 0-2.329-0.298-2.766-1.042-0.218-0.372-0.364-0.893-0.364-1.488v-9.6c0-1.563-0.582-1.86-2.256-1.86h-0.51c-1.674 0-2.256 0.298-2.256 1.86v9.6c0 1.563 0.364 2.828 1.019 3.87 1.237 2.009 3.712 3.126 7.206 3.126s5.969-1.116 7.206-3.126c0.655-1.042 1.019-2.381 1.019-3.87v-7.442h-1.892z"></path>
<path d="M58.59 2.679h2.766c0.291 0 0.51 0.223 0.51 0.521v2.828c0 0.298-0.218 0.521-0.51 0.521h-2.766c-0.291 0-0.51-0.223-0.51-0.521v-2.828c0-0.298 0.218-0.521 0.51-0.521z"></path>
<path d="M55.828 0h1.892c0.218 0 0.364 0.149 0.364 0.372v1.935c0 0.223-0.146 0.372-0.364 0.372h-1.892c-0.218 0-0.364-0.149-0.364-0.372v-1.935c0-0.223 0.218-0.372 0.364-0.372z"></path>
<path d="M7.060 7.893h-4.003c-2.111 0-3.057 0.967-3.057 3.126v13.991c0 0.819 0.291 1.116 1.092 1.116h0.291c0.801 0 1.092-0.298 1.092-1.116v-5.433h4.586c4.076 0 6.041-1.86 6.041-5.879s-1.965-5.805-6.041-5.805zM10.627 13.697c0 2.307-0.582 3.498-3.567 3.498h-4.586v-5.879c0-0.819 0.291-1.116 1.092-1.116h3.494c2.256 0.074 3.567 0.595 3.567 3.498z"></path>
<path d="M18.195 11.911c-1.601 0-2.548 0.223-2.912 0.298-0.655 0.149-0.946 0.298-0.946 1.116v0.223c0 0.298 0.073 0.521 0.146 0.67 0.146 0.149 0.291 0.223 0.509 0.223 0.146 0 0.218 0 0.437-0.074 0.364-0.074 1.601-0.298 2.911-0.298 2.402 0 3.348 0.67 3.348 2.307v1.488h-2.984c-3.858 0-5.678 1.34-5.678 4.167s1.893 4.316 5.241 4.316c4.003 0 5.823-1.414 5.823-4.54v-5.432c-0.073-2.977-1.965-4.465-5.896-4.465zM21.688 19.799v1.935c0 1.563-0.582 2.456-3.494 2.456-1.893 0-2.839-0.67-2.839-2.158 0-1.563 0.946-2.233 3.348-2.233h2.984z"></path>
<path d="M37.266 12.58c-0.146-0.223-0.51-0.223-0.801-0.223h-0.218c-0.801 0-1.092 0.223-1.31 1.042l-2.256 9.526c-0.291 1.191-0.655 1.414-1.31 1.414-0.801 0-1.165-0.223-1.456-1.414l-2.548-9.526c-0.218-0.819-0.509-1.042-1.31-1.042h-0.218c-0.291 0-0.655 0-0.801 0.223s-0.145 0.521 0 0.893l2.548 9.6c0.51 1.861 1.019 3.349 3.203 3.349 0.364 0 0.728-0.074 1.092-0.149-0.655 2.084-1.31 2.977-3.275 3.2-0.364 0-0.655 0.075-0.801 0.298s-0.146 0.521-0.073 0.744l0.073 0.223c0.146 0.595 0.291 0.893 0.946 0.893 0.073 0 0.145 0 0.218 0 2.912-0.223 4.44-1.786 5.386-5.507l3.13-12.651c-0.146-0.372-0.073-0.744-0.218-0.893z"></path>
<path d="M57.36 6.625h-3.712c-0.437 0-0.728 0.298-0.728 0.744v0.521h0.291c1.674 0 2.256 0.298 2.256 1.86v2.232h1.892c0.437 0 0.728-0.298 0.728-0.744v-3.87c0-0.447-0.291-0.744-0.728-0.744z"></path>
<path d="M79.921 17.188c-0.655 0-1.019 0.149-1.237 0.372s-0.291 0.67-0.291 1.191v1.563c0 0.595 0.073 0.968 0.291 1.191s0.655 0.372 1.237 0.372 1.019-0.149 1.237-0.372c0.218-0.223 0.291-0.67 0.291-1.191v-1.563c0-0.595-0.073-0.967-0.291-1.191-0.145-0.223-0.582-0.372-1.237-0.372z"></path>
<path d="M73.585 17.339h-1.31c-0.218 0-0.364 0.149-0.364 0.372v1.786h1.674c0.364 0 0.582-0.074 0.728-0.223s0.218-0.447 0.218-0.819c0-0.372-0.073-0.595-0.218-0.819-0.073-0.223-0.364-0.298-0.728-0.298z"></path>
<path d="M81.671 13.098h-16.596c-3.494 0-6.405 2.902-6.405 6.549s2.839 6.549 6.405 6.549h16.523c3.494 0 6.405-2.902 6.405-6.549s-2.839-6.549-6.332-6.549zM69.297 21.731c0 0.521-0.073 0.893-0.218 1.191-0.146 0.223-0.437 0.372-0.946 0.447-0.291 0.074-0.582 0.074-0.946 0.074-1.237 0-2.111-0.223-2.693-0.67s-0.801-1.191-0.801-2.233v-1.786c0-0.893 0.291-1.563 0.873-2.084s1.456-0.744 2.548-0.744c0.51 0 1.019 0.074 1.456 0.223 0.218 0.074 0.437 0.149 0.51 0.298 0.073 0.074 0.145 0.298 0.145 0.521v0.074c0 0.298-0.073 0.447-0.145 0.521s-0.218 0.074-0.51 0c-0.437-0.149-0.946-0.223-1.383-0.223-0.728 0-1.237 0.149-1.529 0.372s-0.437 0.67-0.437 1.265v1.786c0 0.447 0.146 0.819 0.437 1.042s0.801 0.372 1.529 0.372c0.145 0 0.291 0 0.437 0 0.218 0 0.291-0.149 0.291-0.372v-1.86c0-0.223 0.073-0.447 0.146-0.521s0.291-0.149 0.51-0.149h0.073c0.218 0 0.437 0.074 0.51 0.149s0.145 0.298 0.145 0.521v1.786zM73.664 20.838h-1.674v1.786c0 0.223-0.073 0.447-0.146 0.521s-0.291 0.149-0.51 0.149h-0.218c-0.291 0-0.437-0.074-0.51-0.149s-0.145-0.298-0.145-0.521v-5.358c0-0.446 0.073-0.819 0.291-1.042s0.582-0.298 1.019-0.298h1.82c1.674 0 2.475 0.819 2.475 2.456s-0.801 2.456-2.402 2.456zM82.981 20.391c0 0.967-0.218 1.712-0.655 2.233s-1.237 0.819-2.402 0.819c-1.165 0-1.965-0.298-2.402-0.819s-0.655-1.265-0.655-2.233v-1.563c0-0.967 0.218-1.712 0.655-2.233s1.237-0.819 2.402-0.819c1.165 0 1.965 0.298 2.402 0.819s0.655 1.265 0.655 2.233v1.563z"></path>
</symbol>
<symbol id="icon-youtube" viewBox="0 0 32 32">
<path d="M13.333 20l6.92-4-6.92-4v8zM28.746 9.56c0.173 0.627 0.293 1.467 0.373 2.533 0.093 1.067 0.133 1.987 0.133 2.787l0.080 1.12c0 2.92-0.213 5.067-0.587 6.44-0.333 1.2-1.107 1.973-2.307 2.307-0.627 0.173-1.773 0.293-3.533 0.373-1.733 0.093-3.32 0.133-4.787 0.133l-2.12 0.080c-5.587 0-9.067-0.213-10.44-0.587-1.2-0.333-1.973-1.107-2.307-2.307-0.173-0.627-0.293-1.467-0.373-2.533-0.093-1.067-0.133-1.987-0.133-2.787l-0.080-1.12c0-2.92 0.213-5.067 0.587-6.44 0.333-1.2 1.107-1.973 2.307-2.307 0.627-0.173 1.773-0.293 3.533-0.373 1.733-0.093 3.32-0.133 4.787-0.133l2.12-0.080c5.587 0 9.067 0.213 10.44 0.587 1.2 0.333 1.973 1.107 2.307 2.307z"></path>
</symbol>
<symbol id="next-pagination" viewBox="0 0 40 40">
<path d="M6.66406 18.75C5.97371 18.75 5.41406 19.3096 5.41406 20C5.41406 20.6904 5.97371 21.25 6.66406 21.25V18.75ZM34.2146 20.8839C34.7028 20.3957 34.7028 19.6043 34.2146 19.1161L26.2597 11.1612C25.7715 10.673 24.98 10.673 24.4919 11.1612C24.0037 11.6493 24.0037 12.4408 24.4919 12.9289L31.563 20L24.4919 27.0711C24.0037 27.5592 24.0037 28.3507 24.4919 28.8388C24.98 29.327 25.7715 29.327 26.2597 28.8388L34.2146 20.8839ZM6.66406 21.25H33.3307V18.75H6.66406V21.25Z"/>
</symbol>
<symbol id="prev-pagination" viewBox="0 0 40 40">
<path d="M33.3359 21.25C34.0263 21.25 34.5859 20.6904 34.5859 20C34.5859 19.3096 34.0263 18.75 33.3359 18.75V21.25ZM5.78539 19.1161C5.29723 19.6043 5.29723 20.3957 5.78539 20.8839L13.7403 28.8388C14.2285 29.327 15.02 29.327 15.5081 28.8388C15.9963 28.3507 15.9963 27.5592 15.5081 27.0711L8.43704 20L15.5081 12.9289C15.9963 12.4408 15.9963 11.6493 15.5081 11.1612C15.02 10.673 14.2285 10.673 13.7403 11.1612L5.78539 19.1161ZM33.3359 18.75L6.66927 18.75V21.25L33.3359 21.25V18.75Z"/>
</symbol>
</defs>
</svg>
