<svg aria-hidden="true" style="position: absolute; width: 0; height: 0; overflow: hidden;" version="1.1" xmlns="http://www.w3.org/2000/svg" xmlns:xlink="http://www.w3.org/1999/xlink">
<defs>
<symbol id="arrow-right" viewBox="0 0 32 32">
<path d="M5.333 15c-0.552 0-1 0.448-1 1s0.448 1 1 1v-2zM27.374 16.707c0.391-0.391 0.391-1.024 0-1.414l-6.364-6.364c-0.39-0.391-1.024-0.391-1.414 0s-0.391 1.024 0 1.414l5.657 5.657-5.657 5.657c-0.391 0.39-0.391 1.024 0 1.414s1.024 0.391 1.414 0l6.364-6.364zM5.333 17h21.333v-2h-21.333v2z"></path>
</symbol>
<symbol id="arrow-left" viewBox="0 0 32 32">
<path d="M26.667 17c0.552 0 1-0.448 1-1s-0.448-1-1-1v2zM4.626 15.293c-0.391 0.391-0.391 1.024 0 1.414l6.364 6.364c0.391 0.391 1.024 0.391 1.414 0s0.39-1.024 0-1.414l-5.657-5.657 5.657-5.657c0.39-0.39 0.39-1.024 0-1.414s-1.024-0.391-1.414 0l-6.364 6.364zM26.667 15h-21.333v2h21.333v-2z"></path>
</symbol>
<symbol id="icon-prime_copy" viewBox="0 0 32 32">
<path d="M26.040 10.667l-7.373-7.373c-0.187-0.188-0.442-0.293-0.707-0.293h-3.293c-0.972 0-1.905 0.386-2.593 1.074s-1.074 1.62-1.074 2.593v1.667h-1.667c-0.972 0-1.905 0.386-2.593 1.074s-1.074 1.62-1.074 2.593v13.333c0 0.972 0.386 1.905 1.074 2.593s1.62 1.074 2.593 1.074h9.333c0.972 0 1.905-0.386 2.593-1.074s1.074-1.62 1.074-2.593v-1.667h0.333c0.972 0 1.905-0.386 2.593-1.074s1.074-1.62 1.074-2.593v-8.667c-0.011-0.251-0.115-0.489-0.293-0.667zM19 6.413l3.92 3.92h-3.92v-3.92zM20.333 25.333c0 0.442-0.176 0.866-0.488 1.179s-0.737 0.488-1.179 0.488h-9.333c-0.442 0-0.866-0.176-1.178-0.488s-0.488-0.737-0.488-1.179v-13.333c0-0.442 0.176-0.866 0.488-1.178s0.736-0.488 1.178-0.488h1.667v9.667c0 0.972 0.386 1.905 1.074 2.593s1.62 1.074 2.593 1.074h5.667v1.667zM22.667 21.667h-8c-0.442 0-0.866-0.176-1.179-0.488s-0.488-0.737-0.488-1.179v-13.333c0-0.442 0.176-0.866 0.488-1.178s0.737-0.488 1.179-0.488h2.333v6.333c0.003 0.264 0.11 0.517 0.297 0.703s0.439 0.293 0.703 0.297h6.333v7.667c0 0.442-0.176 0.866-0.488 1.179s-0.737 0.488-1.179 0.488z"></path>
</symbol>
</defs>
</svg>
